<svg width="24" height="24" viewBox="0 0 24 24" fill="none" xmlns="http://www.w3.org/2000/svg">
<path d="M20.6272 22.1527L18.104 21.4762L17.4279 23.9999L15.0873 19.9449L14.5872 19.079L16.4267 16.76L17.6106 16.9272L18.1107 17.7941L20.6272 22.1527Z" fill="#F07281"/>
<path d="M16.0368 19.079L17.8875 22.2846L17.4279 24L14.5872 19.079L16.4267 17.2433L16.0368 19.079Z" fill="#EB5569"/>
<path d="M9.42355 19.1042L8.92293 19.9711L6.59675 24.0001L5.92025 21.4763L3.39697 22.1528L5.9135 17.7928L6.41361 16.9264L7.55741 16.751L9.42355 19.1042Z" fill="#F07281"/>
<path d="M7.63855 17.3154L5.11185 21.6927L3.39697 22.1528L6.41361 16.9264L7.55741 17.2342L7.63855 17.3154Z" fill="#EB5569"/>
<path d="M7.55736 16.751L9.4235 19.1042L8.92287 19.9711L7.05626 18.1001L5.91345 17.7928L6.41356 16.9264L7.55736 16.751ZM18.1106 17.7942L16.9258 18.1102L15.0872 19.945L14.5871 19.0791L16.4266 16.7601L17.6105 16.9273L18.1106 17.7942Z" fill="#EB5569"/>
<path d="M17.1803 20.2386C17.1167 20.2387 17.0541 20.2219 16.9989 20.1901C16.9438 20.1583 16.898 20.1125 16.8662 20.0573L15.633 17.9215C15.6092 17.8803 15.5938 17.8348 15.5876 17.7876C15.5814 17.7404 15.5845 17.6925 15.5968 17.6465C15.6091 17.6006 15.6304 17.5575 15.6594 17.5197C15.6883 17.482 15.7245 17.4503 15.7657 17.4265C15.8069 17.4027 15.8524 17.3872 15.8996 17.381C15.9468 17.3748 15.9947 17.378 16.0407 17.3903C16.0867 17.4026 16.1297 17.4238 16.1675 17.4528C16.2053 17.4818 16.2369 17.5179 16.2607 17.5591L17.4939 19.6949C17.5257 19.75 17.5425 19.8125 17.5425 19.8761C17.5425 19.9397 17.5258 20.0022 17.494 20.0573C17.4623 20.1124 17.4165 20.1581 17.3615 20.19C17.3064 20.2218 17.2439 20.2386 17.1803 20.2386ZM6.84383 20.2387C6.78023 20.2387 6.71776 20.2219 6.6627 20.19C6.60764 20.1582 6.56193 20.1125 6.53016 20.0574C6.49838 20.0023 6.48167 19.9398 6.48169 19.8762C6.48171 19.8126 6.49847 19.7501 6.53028 19.695L7.75812 17.5685C7.80618 17.4852 7.88534 17.4245 7.97817 17.3996C8.07101 17.3747 8.16993 17.3878 8.25317 17.4358C8.33641 17.4839 8.39715 17.563 8.42203 17.6559C8.44691 17.7487 8.43388 17.8476 8.38583 17.9309L7.15798 20.0574C7.12618 20.1126 7.08039 20.1584 7.02523 20.1902C6.97008 20.2221 6.90751 20.2388 6.84383 20.2387Z" fill="#EB5569"/>
<path d="M14.5871 19.079L11.9908 18.4269L9.42354 19.1042L7.5575 17.2341L4.99793 16.5454L4.31459 13.9844L2.44226 12.1082L3.13095 9.54865L2.44756 6.98768L4.32378 5.11536L5.01246 2.55579L7.57343 1.87245L9.4496 0.00012207L12.0092 0.68881L14.5702 0.00541895L16.4425 1.88164L19.0021 2.57028L19.6854 5.13129L21.5577 7.00747L20.8691 9.56703L21.5524 12.128L19.6762 14.0003L18.9875 16.5599L16.4266 17.2433L14.5871 19.079Z" fill="#FEE97D"/>
<path d="M5.7734 5.11523L3.89709 6.98766L4.58034 9.54867L3.8918 12.1082L5.76422 13.9845L6.44747 16.5456L9.00703 17.2341L10.5745 18.805L9.42356 19.1041L7.55742 17.2341L4.99786 16.5456L4.31461 13.9845L2.44214 12.1082L3.13073 9.54867L2.44748 6.98766L4.32375 5.11523L5.01234 2.55567L7.57336 1.87242L9.44962 0L10.5915 0.307313L9.02297 1.87242L6.46195 2.55567L5.7734 5.11523Z" fill="#FBD94F"/>
<path d="M12.0001 16.3099C10.5076 16.3099 9.03056 15.7986 7.8412 14.8701C6.61968 13.9165 5.78601 12.6159 5.43023 11.1089C5.01689 9.35802 5.31225 7.54757 6.26179 6.0111C7.21139 4.47463 8.69864 3.40082 10.4495 2.98752C10.9579 2.86722 11.4785 2.80623 12.0009 2.80579C13.4935 2.80579 14.9705 3.3171 16.1598 4.2456C17.3814 5.19918 18.2151 6.49977 18.5709 8.00685C19.4261 11.6297 17.1745 15.2729 13.5516 16.1282C13.0432 16.2485 12.5226 16.3094 12.0001 16.3099Z" fill="#FFB850"/>
<path d="M12.0002 14.8071C10.8411 14.8071 9.69248 14.4088 8.76595 13.6856C7.81697 12.9447 7.1692 11.9343 6.89287 10.7637C6.57178 9.40348 6.80166 7.9962 7.54022 6.80122C8.27878 5.60623 9.43458 4.77125 10.7948 4.45016C11.19 4.35654 11.5948 4.30903 12.001 4.30859C13.1601 4.30859 14.3086 4.70689 15.2351 5.43017C16.1842 6.17103 16.832 7.18147 17.1083 8.35212C17.7732 11.1685 16.0228 14.0007 13.2063 14.6656C12.8111 14.7592 12.4064 14.8067 12.0002 14.8071Z" fill="#FEE97D"/>
<path d="M12.7292 14.7553C12.4876 14.7896 12.244 14.8069 12 14.807C10.8413 14.807 9.69271 14.4089 8.76594 13.6855C7.81691 12.9447 7.16942 11.9343 6.893 10.7635C6.57167 9.40331 6.80169 7.99621 7.54002 6.80123C8.27886 5.60624 9.43466 4.77126 10.7949 4.44993C11.1926 4.35618 11.5985 4.30884 12.001 4.30884C12.2426 4.30884 12.4833 4.32623 12.722 4.36007C12.5616 4.38286 12.4022 4.41285 12.2445 4.44993C10.8843 4.77126 9.72847 5.60624 8.98963 6.80123C8.2513 7.99621 8.02128 9.40331 8.34261 10.7635C8.61899 11.9343 9.26652 12.9447 10.2155 13.6855C10.9495 14.2581 11.8222 14.6272 12.7292 14.7553Z" fill="#FBD94F"/>
<path d="M12.3003 6.3977L13.1602 8.14014L15.0831 8.41956C15.3578 8.45945 15.4674 8.79695 15.2687 8.99069L13.8773 10.347L14.2057 12.2621C14.2527 12.5357 13.9656 12.7443 13.7199 12.6151L12 11.7109L10.2801 12.6151C10.0345 12.7443 9.74741 12.5357 9.79434 12.2621L10.1228 10.347L8.73135 8.99069C8.53265 8.797 8.64229 8.4595 8.91693 8.41956L10.8398 8.14014L11.6998 6.3977C11.8226 6.14884 12.1775 6.14884 12.3003 6.3977Z" fill="#FFB850"/>
<path d="M11.1 8.99037L12.4915 10.3469L12.2363 11.835L12.0001 11.7106L10.28 12.6148C10.0348 12.7444 9.74765 12.5354 9.79443 12.2619L10.1231 10.3469L8.73154 8.99037C8.53261 8.79673 8.64215 8.45923 8.91689 8.41957L10.8401 8.1401L11.6999 6.39748C11.8225 6.14876 12.1777 6.14876 12.3003 6.39748L13.1601 8.1401L13.1844 8.14366L11.2854 8.41962C11.0106 8.45923 10.901 8.79677 11.1 8.99037Z" fill="#F5A30F"/>
</svg>
