<svg width="24" height="24" viewBox="0 0 24 24" fill="none" xmlns="http://www.w3.org/2000/svg">
<path fill-rule="evenodd" clip-rule="evenodd" d="M14.3296 4.64099H15.8152V5.96899H14.3296V4.64099Z" fill="#CCCCCC"/>
<path fill-rule="evenodd" clip-rule="evenodd" d="M15.0723 5.87598C19.1582 5.87598 22.4704 9.19385 22.4704 13.2864C22.4704 17.3795 19.1582 20.6976 15.0723 20.6976C13.0547 20.6976 11.7184 20.0288 8.98003 19.0976L9.74243 18.3299C10.0848 17.9843 9.7491 17.3547 9.2435 17.5499C6.94403 18.4344 5.60376 17.4899 4.95016 15.3563C5.93923 15.9848 7.3051 15.5515 7.7331 15.1224C8.3963 14.4587 8.13736 13.6909 6.64456 14.1843C4.73016 14.8155 2.71203 13.7107 1.74243 10.9781C4.6715 12.4496 4.88723 9.42132 7.9811 10.2283C7.7179 9.16665 7.0043 8.81652 5.3699 8.85838C6.9907 6.81572 9.34803 7.87332 11.8342 6.62345C12.8422 6.13009 13.95 5.87438 15.0723 5.87598Z" fill="#FD6B65"/>
<path fill-rule="evenodd" clip-rule="evenodd" d="M20.3774 13.2861C20.3774 16.221 18.003 18.5999 15.0723 18.5999C14.3754 18.6 13.6852 18.4626 13.0415 18.1955C12.3978 17.9284 11.813 17.5369 11.3209 17.0434C10.3257 16.046 9.76685 14.6946 9.76685 13.2857C9.76685 11.8767 10.3257 10.5253 11.3209 9.52795C11.8132 9.03472 12.3979 8.64339 13.0417 8.37635C13.6854 8.10931 14.3754 7.9718 15.0723 7.97168C18.003 7.97168 20.3774 10.3517 20.3774 13.2861Z" fill="#F2F2F2"/>
<path d="M14.9928 8.72002C14.919 8.72149 14.8488 8.75204 14.7974 8.80503C14.746 8.85801 14.7176 8.92914 14.7184 9.00295V9.40428C14.7184 9.77495 15.2758 9.77495 15.2758 9.40428V9.00295C15.2765 8.96561 15.2696 8.92851 15.2556 8.89387C15.2417 8.85923 15.2208 8.82777 15.1944 8.80136C15.168 8.77495 15.1365 8.75413 15.1019 8.74015C15.0673 8.72618 15.0302 8.71933 14.9928 8.72002ZM14.9928 16.8872C14.9562 16.8877 14.9201 16.8955 14.8865 16.91C14.8529 16.9245 14.8224 16.9455 14.7969 16.9718C14.7715 16.998 14.7514 17.0291 14.7379 17.0631C14.7245 17.0972 14.7178 17.1335 14.7184 17.1702V17.5702C14.7184 17.9422 15.2758 17.9422 15.2758 17.5702V17.1702C15.2784 17.0128 15.1504 16.8843 14.9928 16.8872ZM18.8739 13.0078C18.5032 13.0078 18.5032 13.5654 18.8739 13.5654H19.2739C19.6443 13.5654 19.6443 13.0078 19.2739 13.0078H18.8739ZM10.719 13.0078C10.3486 13.0078 10.3486 13.5654 10.719 13.5654H11.1203C11.491 13.5654 11.491 13.0078 11.1203 13.0078H10.719ZM17.7352 15.7512C17.4846 15.7512 17.3619 16.0552 17.5414 16.2291L17.823 16.5123C17.8485 16.5397 17.8793 16.5616 17.9135 16.5769C17.9477 16.5921 17.9847 16.6003 18.0221 16.601C18.0595 16.6016 18.0967 16.5948 18.1315 16.5808C18.1662 16.5668 18.1978 16.5459 18.2243 16.5195C18.2507 16.493 18.2715 16.4615 18.2854 16.4268C18.2993 16.3922 18.3061 16.355 18.3053 16.3177C18.3045 16.2803 18.2961 16.2435 18.2807 16.2094C18.2654 16.1754 18.2433 16.1448 18.2158 16.1195L17.9342 15.8366C17.9085 15.8096 17.8776 15.7882 17.8434 15.7735C17.8092 15.7589 17.7724 15.7513 17.7352 15.7512ZM11.9691 9.97682C11.7192 9.97682 11.5971 10.2808 11.7755 10.455L12.0584 10.7366C12.1654 10.852 12.348 10.8566 12.4598 10.7446C12.4861 10.7179 12.5068 10.6863 12.5207 10.6515C12.5345 10.6167 12.5413 10.5795 12.5405 10.5421C12.5397 10.5046 12.5314 10.4677 12.516 10.4336C12.5007 10.3994 12.4787 10.3687 12.4512 10.3432L12.1696 10.0619C12.1436 10.035 12.1124 10.0136 12.078 9.99901C12.0435 9.9844 12.0065 9.97685 11.9691 9.97682ZM18.0155 9.97682C17.9794 9.97765 17.9439 9.98559 17.9109 10.0002C17.8779 10.0148 17.8481 10.0358 17.8232 10.0619L17.5416 10.3432C17.5142 10.3687 17.4922 10.3994 17.4768 10.4336C17.4615 10.4677 17.4532 10.5046 17.4524 10.5421C17.4516 10.5795 17.4583 10.6167 17.4722 10.6515C17.4861 10.6863 17.5068 10.7179 17.5331 10.7446C17.5596 10.771 17.5912 10.7918 17.626 10.8058C17.6608 10.8197 17.698 10.8265 17.7355 10.8258C17.7729 10.825 17.8098 10.8167 17.844 10.8014C17.8782 10.7861 17.909 10.764 17.9344 10.7366L18.216 10.455C18.3987 10.2779 18.2691 9.96855 18.0155 9.97682ZM12.2504 15.7512C12.1782 15.7542 12.108 15.7832 12.0582 15.8366L11.7752 16.1195C11.7479 16.1449 11.7259 16.1756 11.7106 16.2097C11.6954 16.2438 11.6872 16.2806 11.6865 16.318C11.6859 16.3553 11.6927 16.3924 11.7067 16.427C11.7207 16.4617 11.7416 16.4931 11.768 16.5195C11.7945 16.546 11.8261 16.5668 11.8608 16.5809C11.8956 16.5949 11.9328 16.6018 11.9702 16.6011C12.0077 16.6004 12.0446 16.5922 12.0788 16.577C12.113 16.5617 12.1438 16.5397 12.1694 16.5123L12.451 16.2291C12.6336 16.0526 12.5043 15.7446 12.2504 15.7512Z" fill="#808080"/>
<path fill-rule="evenodd" clip-rule="evenodd" d="M15.0723 12.8696C15.3051 12.8696 15.4891 13.0525 15.4891 13.2864C15.4891 13.5208 15.3053 13.7032 15.0723 13.7032C15.0174 13.7037 14.963 13.6933 14.9121 13.6725C14.8613 13.6518 14.8152 13.6211 14.7764 13.5823C14.7375 13.5435 14.7069 13.4973 14.6861 13.4465C14.6654 13.3957 14.6549 13.3412 14.6555 13.2864C14.6555 13.0522 14.8397 12.8696 15.0723 12.8696ZM16.952 11.0376C16.8801 11.039 16.8116 11.0685 16.7611 11.1197L15.4779 12.4061C15.3512 12.3454 15.2127 12.3135 15.0723 12.3128C14.5387 12.3128 14.1011 12.753 14.1011 13.2864C14.1011 13.82 14.5387 14.2608 15.0723 14.2608C15.6059 14.2608 16.0437 13.82 16.0437 13.2864C16.0437 13.0984 15.9877 12.9245 15.8947 12.7752L17.1541 11.5128C17.3325 11.3357 17.2043 11.0317 16.952 11.0376Z" fill="#808080"/>
<rect x="12.75" y="3.29993" width="4.5" height="1.8" rx="0.9" fill="#808080"/>
</svg>
