<svg width="16" height="16" viewBox="0 0 16 16" fill="none" xmlns="http://www.w3.org/2000/svg">
<g clip-path="url(#clip0_234_78)">
<path d="M14.8003 7.20705H14.6724C14.5786 6.40423 14.3393 5.62521 13.9663 4.90814L14.7844 4.08986C14.7999 4.07433 14.8111 4.05499 14.8167 4.03378C14.8224 4.01258 14.8224 3.99025 14.8167 3.96906C14.811 3.94786 14.7998 3.92854 14.7842 3.91303C14.7687 3.89753 14.7494 3.88639 14.7281 3.88074L13.4077 3.52761L13.6293 3.30602C13.7218 3.21359 13.7848 3.0958 13.8102 2.96756C13.8357 2.83932 13.8226 2.7064 13.7725 2.58563C13.7224 2.46487 13.6375 2.36169 13.5287 2.28917C13.4199 2.21664 13.2921 2.17804 13.1613 2.17824H13.1606C13.0738 2.17799 12.9879 2.19498 12.9078 2.22823C12.8276 2.26148 12.7549 2.31033 12.6938 2.37193L12.4732 2.59249L12.1193 1.27193C12.1137 1.25073 12.1025 1.2314 12.087 1.21588C12.0715 1.20036 12.0521 1.1892 12.0309 1.18352C12.0097 1.17784 11.9874 1.17784 11.9662 1.18352C11.945 1.18921 11.9257 1.20037 11.9102 1.21589L11.0923 2.03402C10.3751 1.66117 9.59594 1.42213 8.79302 1.32861V1.19974C8.79302 0.989422 8.70947 0.787719 8.56075 0.639003C8.41204 0.490286 8.21034 0.406738 8.00002 0.406738C7.7897 0.406738 7.588 0.490286 7.43928 0.639003C7.29057 0.787719 7.20702 0.989422 7.20702 1.19974V1.32849C4.13643 1.68989 1.68986 4.13646 1.32846 7.20705H1.19974C1.0956 7.20705 0.992482 7.22756 0.89627 7.26741C0.800059 7.30727 0.712639 7.36568 0.639003 7.43931C0.565366 7.51295 0.506954 7.60037 0.467102 7.69658C0.42725 7.79279 0.406738 7.89591 0.406738 8.00005C0.406738 8.10419 0.42725 8.20731 0.467102 8.30352C0.506954 8.39973 0.565366 8.48715 0.639003 8.56079C0.712639 8.63442 0.800059 8.69284 0.89627 8.73269C0.992482 8.77254 1.0956 8.79305 1.19974 8.79305H1.32846C1.68989 11.8642 4.13646 14.3111 7.20702 14.6725V14.8004C7.20702 14.9045 7.22753 15.0076 7.26738 15.1038C7.30724 15.2 7.36565 15.2875 7.43928 15.3611C7.51292 15.4347 7.60034 15.4931 7.69655 15.533C7.79276 15.5729 7.89588 15.5934 8.00002 15.5934C8.10416 15.5934 8.20728 15.5729 8.30349 15.533C8.3997 15.4931 8.48712 15.4347 8.56075 15.3611C8.63439 15.2875 8.6928 15.2 8.73266 15.1038C8.77251 15.0076 8.79302 14.9045 8.79302 14.8004V14.6725C11.8641 14.3111 14.311 11.8641 14.6725 8.79305H14.8003C15.0106 8.79305 15.2123 8.7095 15.361 8.56079C15.5098 8.41207 15.5933 8.21037 15.5933 8.00005C15.5933 7.78973 15.5098 7.58803 15.361 7.43931C15.2123 7.2906 15.0106 7.20705 14.8003 7.20705ZM8.79302 13.0716V13.0508C8.79302 12.8405 8.70947 12.6388 8.56075 12.4901C8.41204 12.3414 8.21034 12.2578 8.00002 12.2578C7.7897 12.2578 7.588 12.3414 7.43928 12.4901C7.29057 12.6388 7.20702 12.8405 7.20702 13.0508V13.0717C6.13199 12.9051 5.13788 12.4007 4.36865 11.6314C3.59942 10.8622 3.09501 9.86809 2.92846 8.79305H2.94924C3.15955 8.79305 3.36126 8.7095 3.50997 8.56079C3.65869 8.41207 3.74224 8.21037 3.74224 8.00005C3.74224 7.78973 3.65869 7.58803 3.50997 7.43931C3.36126 7.2906 3.15955 7.20705 2.94924 7.20705H2.92846C3.09525 6.13212 3.59974 5.13815 4.36893 4.36896C5.13811 3.59978 6.13209 3.09528 7.20702 2.92849V2.94927C7.20702 3.05341 7.22753 3.15653 7.26738 3.25274C7.30724 3.34895 7.36565 3.43637 7.43928 3.51001C7.51292 3.58364 7.60034 3.64205 7.69655 3.68191C7.79276 3.72176 7.89588 3.74227 8.00002 3.74227C8.10416 3.74227 8.20728 3.72176 8.30349 3.68191C8.3997 3.64205 8.48712 3.58364 8.56075 3.51001C8.63439 3.43637 8.6928 3.34895 8.73266 3.25274C8.77251 3.15653 8.79302 3.05341 8.79302 2.94927V2.92889C9.17114 2.98749 9.54147 3.08841 9.89705 3.22974L9.47418 3.65274C9.45867 3.66825 9.44752 3.68757 9.44184 3.70875C9.43617 3.72993 9.43616 3.75224 9.44183 3.77343L9.83246 5.23327L9.26218 5.80355L9.27646 5.77877C8.73847 5.47033 8.10676 5.3678 7.49883 5.49023C6.8909 5.61267 6.34814 5.95174 5.97148 6.44438C5.59482 6.93703 5.40992 7.54971 5.45115 8.16847C5.49239 8.78723 5.75696 9.36995 6.19565 9.80826C6.63435 10.2466 7.21731 10.5106 7.83611 10.5513C8.45491 10.592 9.06742 10.4065 9.55973 10.0294C10.052 9.65234 10.3906 9.10927 10.5125 8.50123C10.6344 7.89319 10.5313 7.26158 10.2224 6.72386L10.197 6.73843L10.7676 6.16789L12.2276 6.55911C12.2487 6.56479 12.2711 6.56479 12.2923 6.55911C12.3135 6.55342 12.3328 6.54226 12.3483 6.52674L12.7709 6.10396C12.9121 6.45924 13.0128 6.82927 13.0712 7.20708H13.0509C12.8405 7.20708 12.6388 7.29063 12.4901 7.43935C12.3414 7.58806 12.2579 7.78977 12.2579 8.00008C12.2579 8.2104 12.3414 8.4121 12.4901 8.56082C12.6388 8.70953 12.8405 8.79308 13.0509 8.79308H13.0717C12.9051 9.86811 12.4007 10.8622 11.6314 11.6314C10.8622 12.4007 9.86806 12.9051 8.79302 13.0716Z" fill="#FE646F"/>
<path d="M3.74271 8.00044C3.74235 8.21069 3.65861 8.41221 3.50986 8.56079C3.3611 8.70937 3.15949 8.79288 2.94924 8.793H1.19974C0.989422 8.793 0.787719 8.70945 0.639003 8.56074C0.490286 8.41202 0.406738 8.21032 0.406738 8C0.406738 7.78968 0.490286 7.58798 0.639003 7.43926C0.787719 7.29055 0.989422 7.207 1.19974 7.207H2.94924C3.1596 7.20724 3.36128 7.29091 3.51003 7.43966C3.65878 7.5884 3.74246 7.79008 3.74271 8.00044ZM8.00049 0.40625C7.79012 0.406482 7.58844 0.490149 7.43969 0.638896C7.29094 0.787644 7.20726 0.989323 7.20702 1.19969V2.94922C7.20702 3.05336 7.22753 3.15648 7.26738 3.25269C7.30724 3.3489 7.36565 3.43632 7.43928 3.50995C7.51292 3.58359 7.60034 3.642 7.69655 3.68186C7.79276 3.72171 7.89588 3.74222 8.00002 3.74222C8.10416 3.74222 8.20728 3.72171 8.30349 3.68186C8.3997 3.642 8.48712 3.58359 8.56075 3.50995C8.63439 3.43632 8.6928 3.3489 8.73266 3.25269C8.77251 3.15648 8.79302 3.05336 8.79302 2.94922V1.19969C8.79294 0.989437 8.70944 0.787808 8.56086 0.639054C8.41227 0.490299 8.21074 0.406573 8.00049 0.40625ZM14.8003 7.207H13.0508C12.8405 7.207 12.6388 7.29055 12.4901 7.43926C12.3413 7.58798 12.2578 7.78968 12.2578 8C12.2578 8.21032 12.3413 8.41202 12.4901 8.56074C12.6388 8.70945 12.8405 8.793 13.0508 8.793H14.8003C15.0106 8.793 15.2123 8.70945 15.361 8.56074C15.5098 8.41202 15.5933 8.21032 15.5933 8C15.5933 7.78968 15.5098 7.58798 15.361 7.43926C15.2123 7.29055 15.0106 7.207 14.8003 7.207ZM8.00049 12.2573C7.79012 12.2576 7.58844 12.3412 7.43969 12.49C7.29094 12.6387 7.20726 12.8404 7.20702 13.0508V14.8003C7.20702 14.9045 7.22753 15.0076 7.26738 15.1038C7.30724 15.2 7.36565 15.2874 7.43928 15.361C7.51292 15.4347 7.60034 15.4931 7.69655 15.5329C7.79276 15.5728 7.89588 15.5933 8.00002 15.5933C8.10416 15.5933 8.20728 15.5728 8.30349 15.5329C8.3997 15.4931 8.48712 15.4347 8.56075 15.361C8.63439 15.2874 8.6928 15.2 8.73266 15.1038C8.77251 15.0076 8.79302 14.9045 8.79302 14.8003V13.0508C8.79294 12.8405 8.70944 12.6389 8.56086 12.4901C8.41227 12.3414 8.21074 12.2577 8.00049 12.2573Z" fill="#837683"/>
<path d="M2.94922 7.207H2.51172C2.61586 7.207 2.71898 7.22751 2.81519 7.26736C2.9114 7.30722 2.99882 7.36563 3.07245 7.43926C3.14609 7.5129 3.2045 7.60032 3.24436 7.69653C3.28421 7.79274 3.30472 7.89586 3.30472 8C3.30472 8.10414 3.28421 8.20726 3.24436 8.30347C3.2045 8.39968 3.14609 8.4871 3.07245 8.56074C2.99882 8.63437 2.9114 8.69278 2.81519 8.73264C2.71898 8.77249 2.61586 8.793 2.51172 8.793H2.94922C3.15954 8.793 3.36124 8.70945 3.50995 8.56074C3.65867 8.41202 3.74222 8.21032 3.74222 8C3.74222 7.78968 3.65867 7.58798 3.50995 7.43926C3.36124 7.29055 3.15954 7.207 2.94922 7.207ZM8.00047 12.2573C7.92646 12.2574 7.85283 12.2678 7.78172 12.2883C7.94706 12.3361 8.09241 12.4363 8.19591 12.5738C8.29941 12.7113 8.35546 12.8787 8.35563 13.0508V14.8003C8.35546 14.9724 8.29941 15.1398 8.19591 15.2773C8.09241 15.4148 7.94706 15.515 7.78172 15.5628C7.89978 15.5968 8.02414 15.6029 8.14496 15.5806C8.26579 15.5583 8.37976 15.5081 8.47787 15.4342C8.57598 15.3602 8.65553 15.2644 8.71025 15.1544C8.76497 15.0444 8.79334 14.9232 8.79313 14.8003V13.0508C8.79304 12.8405 8.70953 12.6389 8.56092 12.4901C8.41231 12.3413 8.21074 12.2576 8.00047 12.2573ZM8.00047 0.40625C7.92646 0.406271 7.85282 0.416696 7.78172 0.437219C7.94706 0.485009 8.09241 0.585194 8.19591 0.722704C8.29941 0.860213 8.35546 1.02761 8.35563 1.19972V2.94922C8.35546 3.12133 8.29941 3.28872 8.19591 3.42623C8.09241 3.56374 7.94706 3.66393 7.78172 3.71172C7.89978 3.74572 8.02413 3.75179 8.14495 3.72946C8.26576 3.70712 8.37972 3.65699 8.47783 3.58303C8.57593 3.50907 8.65549 3.4133 8.71021 3.3033C8.76493 3.1933 8.79332 3.07208 8.79313 2.94922V1.19969C8.79304 0.989415 8.70953 0.787768 8.56092 0.63901C8.41231 0.490252 8.21074 0.40654 8.00047 0.40625ZM14.8003 7.207H14.3628C14.4669 7.207 14.57 7.22751 14.6662 7.26736C14.7625 7.30722 14.8499 7.36563 14.9235 7.43926C14.9972 7.5129 15.0556 7.60032 15.0954 7.69653C15.1353 7.79274 15.1558 7.89586 15.1558 8C15.1558 8.10414 15.1353 8.20726 15.0954 8.30347C15.0556 8.39968 14.9972 8.4871 14.9235 8.56074C14.8499 8.63437 14.7625 8.69278 14.6662 8.73264C14.57 8.77249 14.4669 8.793 14.3628 8.793H14.8003C15.0106 8.793 15.2123 8.70945 15.361 8.56074C15.5097 8.41202 15.5933 8.21032 15.5933 8C15.5933 7.78968 15.5097 7.58798 15.361 7.43926C15.2123 7.29055 15.0106 7.207 14.8003 7.207Z" fill="#685E68"/>
<path d="M14.107 7.20705H14.6723C14.5785 6.40421 14.3393 5.62517 13.9662 4.90808L13.5819 5.29246C13.8519 5.90073 14.0289 6.54614 14.107 7.20705ZM11.0923 2.03399C10.3751 1.66116 9.5959 1.42213 8.79297 1.32861V1.44761C9.52791 1.59535 10.2325 1.86644 10.877 2.24939L11.0923 2.03399ZM8.79297 14.5536V14.6725C11.864 14.3111 14.311 11.8641 14.6724 8.79305H14.1068C13.7668 11.6719 11.5974 13.9901 8.79297 14.5536Z" fill="#FD4755"/>
<path d="M13.6293 2.37157C13.5679 2.31 13.495 2.26121 13.4147 2.22802C13.3343 2.19484 13.2482 2.17791 13.1613 2.17823H13.1606C13.0738 2.17797 12.9879 2.19495 12.9078 2.22818C12.8276 2.26142 12.7549 2.31024 12.6938 2.37182L7.53303 7.53254C7.44058 7.62486 7.37758 7.74252 7.35201 7.87065C7.32644 7.99877 7.33943 8.1316 7.38935 8.25234C7.43928 8.37308 7.52388 8.4763 7.63247 8.54896C7.74106 8.62161 7.86875 8.66043 7.9994 8.66051H8.00003C8.08694 8.66082 8.17305 8.6439 8.25338 8.61071C8.3337 8.57752 8.40665 8.52873 8.468 8.46716L13.6293 3.30601C13.7527 3.18183 13.8219 3.01388 13.8219 2.83882C13.8219 2.66376 13.7527 2.49581 13.6293 2.37163V2.37157Z" fill="#837683"/>
<path d="M9.10749 5.95816L9.26214 5.80354L9.27643 5.77876C8.88825 5.55558 8.44827 5.43828 8.00052 5.4386C7.92677 5.4386 7.85393 5.44244 7.78177 5.4486C8.26304 5.48935 8.72282 5.66607 9.10749 5.95816ZM10.2224 6.72385L10.197 6.73841L9.92549 7.00991C10.0817 7.38218 10.1476 7.78609 10.118 8.1887C10.0883 8.59131 9.96394 8.98121 9.75493 9.32659C9.54592 9.67197 9.25822 9.96304 8.91531 10.1761C8.57239 10.3891 8.18397 10.518 7.78174 10.5524C7.85393 10.5586 7.92677 10.5623 8.00049 10.5623C8.44972 10.5622 8.89101 10.4439 9.28014 10.2195C9.66927 9.99501 9.99256 9.6722 10.2176 9.2834C10.4427 8.89461 10.5616 8.45349 10.5624 8.00426C10.5632 7.55503 10.446 7.11348 10.2224 6.72385Z" fill="#FD4755"/>
<path d="M13.6293 2.37157C13.5675 2.30969 13.4941 2.26073 13.4132 2.22754C13.4974 2.35484 13.5351 2.50723 13.52 2.65907C13.505 2.81092 13.438 2.95294 13.3305 3.06123L8.16942 8.22235C8.10808 8.28392 8.03513 8.33272 7.95481 8.36591C7.87448 8.3991 7.78837 8.41603 7.70145 8.41573H7.7007C7.61467 8.41577 7.52945 8.39902 7.44983 8.36641C7.51033 8.4567 7.59209 8.53074 7.68792 8.58202C7.78375 8.6333 7.89071 8.66026 7.99939 8.66051H8.00002C8.08693 8.66082 8.17304 8.6439 8.25337 8.61071C8.33369 8.57752 8.40664 8.52873 8.46799 8.46716L13.6293 3.30601C13.7527 3.18183 13.8219 3.01388 13.8219 2.83882C13.8219 2.66376 13.7527 2.49581 13.6293 2.37163V2.37157Z" fill="#685E68"/>
<path d="M9.44187 3.7734C9.4362 3.75221 9.43621 3.7299 9.44188 3.70872C9.44756 3.68754 9.45871 3.66822 9.47422 3.65271L11.9102 1.21583C11.9257 1.20031 11.9451 1.18915 11.9663 1.18346C11.9875 1.17778 12.0098 1.17778 12.031 1.18346C12.0522 1.18914 12.0715 1.2003 12.087 1.21582C12.1025 1.23133 12.1137 1.25067 12.1194 1.27186L12.4732 2.59243L9.83259 5.23324L9.44187 3.7734ZM14.8166 3.96908C14.8109 3.94789 14.7997 3.92856 14.7842 3.91304C14.7687 3.89753 14.7494 3.88638 14.7282 3.88071L13.4077 3.52758L10.7675 6.16777L12.2275 6.55899C12.2487 6.56467 12.271 6.56466 12.2922 6.55898C12.3134 6.5533 12.3328 6.54214 12.3483 6.52661L14.7843 4.08974C14.7998 4.07423 14.8109 4.05491 14.8166 4.03374C14.8223 4.01256 14.8223 3.99026 14.8166 3.96908Z" fill="#FFC338"/>
<path d="M14.8166 3.96901C14.8109 3.94782 14.7997 3.92849 14.7842 3.91298C14.7687 3.89746 14.7494 3.88631 14.7282 3.88064L14.3738 3.78589C14.3946 3.79198 14.4134 3.80339 14.4285 3.81898C14.4435 3.83458 14.4543 3.85382 14.4596 3.87483C14.465 3.89583 14.4648 3.91787 14.4591 3.93878C14.4533 3.95968 14.4422 3.97873 14.4269 3.99404L11.9909 6.43092C11.9754 6.44644 11.9561 6.4576 11.9349 6.46328C11.9137 6.46896 11.8914 6.46897 11.8702 6.46329L12.2274 6.55901C12.2486 6.56469 12.2709 6.56469 12.2921 6.55901C12.3133 6.55332 12.3326 6.54216 12.3482 6.52664L14.7842 4.08976C14.7997 4.07426 14.8109 4.05493 14.8166 4.03374C14.8223 4.01254 14.8223 3.99022 14.8166 3.96901ZM12.116 2.49664L10.4057 4.20692L9.73682 4.87579L9.83244 5.23317L12.4732 2.59236L12.3775 2.23511L12.116 2.49664Z" fill="#EFB135"/>
</g>
<defs>
<clipPath id="clip0_234_78">
<rect width="16" height="16" fill="white"/>
</clipPath>
</defs>
</svg>
