<svg width="24" height="24" viewBox="0 0 24 24" fill="none" xmlns="http://www.w3.org/2000/svg">
<g clip-path="url(#clip0_234_78)">
<path d="M22.2005 10.8103H22.0085C21.8678 9.6061 21.5089 8.43757 20.9494 7.36197L22.1766 6.13455C22.1999 6.11126 22.2166 6.08224 22.2251 6.05043C22.2336 6.01862 22.2336 5.98514 22.225 5.95334C22.2164 5.92154 22.1997 5.89256 22.1764 5.8693C22.1531 5.84605 22.124 5.82934 22.0922 5.82086L20.1116 5.29118L20.444 4.95879C20.5827 4.82014 20.6771 4.64345 20.7154 4.45109C20.7536 4.25873 20.7339 4.05935 20.6587 3.8782C20.5835 3.69706 20.4563 3.54229 20.2931 3.43351C20.1299 3.32472 19.9381 3.26681 19.742 3.26711H19.7409C19.6108 3.26674 19.4818 3.29223 19.3616 3.3421C19.2414 3.39198 19.1323 3.46524 19.0407 3.55764L18.7098 3.88849L18.179 1.90764C18.1705 1.87585 18.1537 1.84685 18.1305 1.82357C18.1072 1.80029 18.0782 1.78355 18.0464 1.77503C18.0146 1.76651 17.9811 1.76652 17.9493 1.77504C17.9175 1.78357 17.8885 1.80031 17.8653 1.8236L16.6385 3.05079C15.5627 2.49151 14.3939 2.13295 13.1895 1.99268V1.79936C13.1895 1.48389 13.0642 1.18133 12.8411 0.95826C12.6181 0.735185 12.3155 0.609863 12 0.609863C11.6846 0.609863 11.382 0.735185 11.1589 0.95826C10.9359 1.18133 10.8105 1.48389 10.8105 1.79936V1.99249C6.20464 2.5346 2.53479 6.20444 1.99269 10.8103H1.79961C1.6434 10.8103 1.48872 10.8411 1.34441 10.9009C1.20009 10.9607 1.06896 11.0483 0.958504 11.1587C0.848049 11.2692 0.760431 11.4003 0.700653 11.5446C0.640875 11.6889 0.610107 11.8436 0.610107 11.9998C0.610107 12.156 0.640875 12.3107 0.700653 12.455C0.760431 12.5994 0.848049 12.7305 0.958504 12.8409C1.06896 12.9514 1.20009 13.039 1.34441 13.0988C1.48872 13.1586 1.6434 13.1893 1.79961 13.1893H1.99269C2.53484 17.796 6.20469 21.4664 10.8105 22.0085V22.2003C10.8105 22.3565 10.8413 22.5112 10.9011 22.6555C10.9609 22.7998 11.0485 22.9309 11.1589 23.0414C11.2694 23.1519 11.4005 23.2395 11.5448 23.2993C11.6891 23.359 11.8438 23.3898 12 23.3898C12.1562 23.3898 12.3109 23.359 12.4552 23.2993C12.5995 23.2395 12.7307 23.1519 12.8411 23.0414C12.9516 22.9309 13.0392 22.7998 13.099 22.6555C13.1588 22.5112 13.1895 22.3565 13.1895 22.2003V22.0085C17.7961 21.4663 21.4665 17.7959 22.0087 13.1893H22.2005C22.5159 13.1893 22.8185 13.064 23.0416 12.8409C23.2646 12.6179 23.3899 12.3153 23.3899 11.9998C23.3899 11.6844 23.2646 11.3818 23.0416 11.1587C22.8185 10.9357 22.5159 10.8103 22.2005 10.8103ZM13.1895 19.6072V19.576C13.1895 19.2605 13.0642 18.958 12.8411 18.7349C12.6181 18.5118 12.3155 18.3865 12 18.3865C11.6846 18.3865 11.382 18.5118 11.1589 18.7349C10.9359 18.958 10.8105 19.2605 10.8105 19.576V19.6073C9.19798 19.3574 7.70681 18.6008 6.55297 17.4469C5.39913 16.2931 4.64251 14.8019 4.39269 13.1893H4.42386C4.73933 13.1893 5.04189 13.064 5.26496 12.8409C5.48804 12.6179 5.61336 12.3153 5.61336 11.9998C5.61336 11.6844 5.48804 11.3818 5.26496 11.1587C5.04189 10.9357 4.73933 10.8103 4.42386 10.8103H4.39269C4.64288 9.19794 5.39962 7.70697 6.55339 6.5532C7.70717 5.39942 9.19814 4.64268 10.8105 4.39249V4.42366C10.8105 4.57987 10.8413 4.73455 10.9011 4.87886C10.9609 5.02318 11.0485 5.15431 11.1589 5.26476C11.2694 5.37522 11.4005 5.46284 11.5448 5.52262C11.6891 5.58239 11.8438 5.61316 12 5.61316C12.1562 5.61316 12.3109 5.58239 12.4552 5.52262C12.5995 5.46284 12.7307 5.37522 12.8411 5.26476C12.9516 5.15431 13.0392 5.02318 13.099 4.87886C13.1588 4.73455 13.1895 4.57987 13.1895 4.42366V4.3931C13.7567 4.481 14.3122 4.63237 14.8456 4.84436L14.2113 5.47886C14.188 5.50213 14.1713 5.53111 14.1628 5.56288C14.1542 5.59466 14.1542 5.62812 14.1627 5.65989L14.7487 7.84966L13.8933 8.70508L13.9147 8.66791C13.1077 8.20526 12.1601 8.05146 11.2482 8.23511C10.3364 8.41876 9.5222 8.92737 8.95722 9.66633C8.39223 10.4053 8.11487 11.3243 8.17673 12.2525C8.23858 13.1806 8.63544 14.0547 9.29348 14.7121C9.95153 15.3696 10.826 15.7657 11.7542 15.8267C12.6824 15.8877 13.6011 15.6096 14.3396 15.0439C15.0781 14.4783 15.5859 13.6637 15.7688 12.7516C15.9516 11.8395 15.797 10.8921 15.3336 10.0856L15.2955 10.1074L16.1513 9.2516L18.3413 9.83843C18.3731 9.84694 18.4066 9.84694 18.4384 9.83842C18.4702 9.82989 18.4992 9.81315 18.5225 9.78986L19.1564 9.15569C19.3681 9.68861 19.5192 10.2437 19.6069 10.8104H19.5763C19.2608 10.8104 18.9583 10.9357 18.7352 11.1588C18.5121 11.3819 18.3868 11.6844 18.3868 11.9999C18.3868 12.3154 18.5121 12.6179 18.7352 12.841C18.9583 13.0641 19.2608 13.1894 19.5763 13.1894H19.6076C19.3577 14.8019 18.601 16.2931 17.4471 17.4469C16.2933 18.6007 14.8021 19.3574 13.1895 19.6072Z" fill="#FE646F"/>
<path d="M5.61406 12.0007C5.61353 12.316 5.48792 12.6183 5.26479 12.8412C5.04166 13.0641 4.73923 13.1893 4.42386 13.1895H1.79961C1.48413 13.1895 1.18158 13.0642 0.958504 12.8411C0.735429 12.618 0.610107 12.3155 0.610107 12C0.610107 11.6845 0.735429 11.382 0.958504 11.1589C1.18158 10.9358 1.48413 10.8105 1.79961 10.8105H4.42386C4.7394 10.8109 5.04192 10.9364 5.26504 11.1595C5.48817 11.3826 5.61369 11.6851 5.61406 12.0007ZM12.0007 0.609375C11.6852 0.609722 11.3827 0.735224 11.1595 0.958345C10.9364 1.18147 10.8109 1.48398 10.8105 1.79953V4.42383C10.8105 4.58004 10.8413 4.73471 10.9011 4.87903C10.9609 5.02335 11.0485 5.15448 11.1589 5.26493C11.2694 5.37539 11.4005 5.463 11.5448 5.52278C11.6891 5.58256 11.8438 5.61333 12 5.61333C12.1562 5.61333 12.3109 5.58256 12.4552 5.52278C12.5995 5.463 12.7307 5.37539 12.8411 5.26493C12.9516 5.15448 13.0392 5.02335 13.099 4.87903C13.1588 4.73471 13.1895 4.58004 13.1895 4.42383V1.79953C13.1894 1.48416 13.0642 1.18171 12.8413 0.958581C12.6184 0.735449 12.3161 0.609859 12.0007 0.609375ZM22.2005 10.8105H19.5762C19.2607 10.8105 18.9582 10.9358 18.7351 11.1589C18.512 11.382 18.3867 11.6845 18.3867 12C18.3867 12.3155 18.512 12.618 18.7351 12.8411C18.9582 13.0642 19.2607 13.1895 19.5762 13.1895H22.2005C22.5159 13.1895 22.8185 13.0642 23.0416 12.8411C23.2646 12.618 23.3899 12.3155 23.3899 12C23.3899 11.6845 23.2646 11.382 23.0416 11.1589C22.8185 10.9358 22.5159 10.8105 22.2005 10.8105ZM12.0007 18.386C11.6852 18.3864 11.3827 18.5119 11.1595 18.735C10.9364 18.9581 10.8109 19.2606 10.8105 19.5762V22.2005C10.8105 22.3567 10.8413 22.5114 10.9011 22.6557C10.9609 22.8 11.0485 22.9311 11.1589 23.0416C11.2694 23.152 11.4005 23.2396 11.5448 23.2994C11.6891 23.3592 11.8438 23.39 12 23.39C12.1562 23.39 12.3109 23.3592 12.4552 23.2994C12.5995 23.2396 12.7307 23.152 12.8411 23.0416C12.9516 22.9311 13.0392 22.8 13.099 22.6557C13.1588 22.5114 13.1895 22.3567 13.1895 22.2005V19.5762C13.1894 19.2608 13.0642 18.9584 12.8413 18.7352C12.6184 18.5121 12.3161 18.3865 12.0007 18.386Z" fill="#837683"/>
<path d="M4.42383 10.8105H3.76758C3.92379 10.8105 4.07846 10.8413 4.22278 10.901C4.3671 10.9608 4.49823 11.0484 4.60868 11.1589C4.71914 11.2694 4.80675 11.4005 4.86653 11.5448C4.92631 11.6891 4.95708 11.8438 4.95708 12C4.95708 12.1562 4.92631 12.3109 4.86653 12.4552C4.80675 12.5995 4.71914 12.7306 4.60868 12.8411C4.49823 12.9516 4.3671 13.0392 4.22278 13.099C4.07846 13.1587 3.92379 13.1895 3.76758 13.1895H4.42383C4.7393 13.1895 5.04186 13.0642 5.26493 12.8411C5.48801 12.618 5.61333 12.3155 5.61333 12C5.61333 11.6845 5.48801 11.382 5.26493 11.1589C5.04186 10.9358 4.7393 10.8105 4.42383 10.8105ZM12.0007 18.386C11.8897 18.3861 11.7792 18.4017 11.6726 18.4324C11.9206 18.5041 12.1386 18.6544 12.2939 18.8607C12.4491 19.0669 12.5332 19.318 12.5334 19.5762V22.2005C12.5332 22.4586 12.4491 22.7097 12.2939 22.916C12.1386 23.1223 11.9206 23.2725 11.6726 23.3442C11.8497 23.3952 12.0362 23.4044 12.2174 23.3709C12.3987 23.3374 12.5696 23.2622 12.7168 23.1513C12.864 23.0403 12.9833 22.8967 13.0654 22.7316C13.1474 22.5666 13.19 22.3848 13.1897 22.2005V19.5762C13.1896 19.2608 13.0643 18.9583 12.8414 18.7352C12.6185 18.512 12.3161 18.3864 12.0007 18.386ZM12.0007 0.609375C11.8897 0.609406 11.7792 0.625044 11.6726 0.655828C11.9206 0.727514 12.1386 0.877791 12.2939 1.08406C12.4491 1.29032 12.5332 1.54142 12.5334 1.79958V4.42383C12.5332 4.68199 12.4491 4.93309 12.2939 5.13935C12.1386 5.34562 11.9206 5.49589 11.6726 5.56758C11.8497 5.61858 12.0362 5.62768 12.2174 5.59418C12.3986 5.56068 12.5696 5.48549 12.7167 5.37455C12.8639 5.2636 12.9832 5.11996 13.0653 4.95495C13.1474 4.78995 13.19 4.60812 13.1897 4.42383V1.79953C13.1896 1.48412 13.0643 1.18165 12.8414 0.958515C12.6185 0.735378 12.3161 0.60981 12.0007 0.609375ZM22.2004 10.8105H21.5442C21.7004 10.8105 21.8551 10.8413 21.9994 10.901C22.1437 10.9608 22.2748 11.0484 22.3853 11.1589C22.4957 11.2694 22.5833 11.4005 22.6431 11.5448C22.7029 11.6891 22.7337 11.8438 22.7337 12C22.7337 12.1562 22.7029 12.3109 22.6431 12.4552C22.5833 12.5995 22.4957 12.7306 22.3853 12.8411C22.2748 12.9516 22.1437 13.0392 21.9994 13.099C21.8551 13.1587 21.7004 13.1895 21.5442 13.1895H22.2004C22.5159 13.1895 22.8185 13.0642 23.0415 12.8411C23.2646 12.618 23.3899 12.3155 23.3899 12C23.3899 11.6845 23.2646 11.382 23.0415 11.1589C22.8185 10.9358 22.5159 10.8105 22.2004 10.8105Z" fill="#685E68"/>
<path d="M21.1606 10.8105H22.0086C21.8679 9.60619 21.509 8.43763 20.9495 7.362L20.3729 7.93856C20.7779 8.85097 21.0435 9.81909 21.1606 10.8105ZM16.6386 3.05086C15.5627 2.49162 14.394 2.13308 13.1896 1.9928V2.1713C14.292 2.3929 15.3489 2.79954 16.3156 3.37397L16.6386 3.05086ZM13.1896 21.8303V22.0087C17.7962 21.4665 21.4666 17.796 22.0088 13.1895H21.1603C20.6504 17.5078 17.3962 20.9851 13.1896 21.8303Z" fill="#FD4755"/>
<path d="M20.4439 3.55748C20.3518 3.46512 20.2424 3.39194 20.1219 3.34216C20.0014 3.29238 19.8723 3.26699 19.7419 3.26746H19.7408C19.6107 3.26707 19.4818 3.29255 19.3616 3.3424C19.2414 3.39225 19.1323 3.46548 19.0406 3.55785L11.2995 11.2989C11.1608 11.4374 11.0663 11.6139 11.028 11.8061C10.9896 11.9983 11.0091 12.1975 11.084 12.3786C11.1589 12.5597 11.2858 12.7146 11.4486 12.8236C11.6115 12.9325 11.8031 12.9908 11.999 12.9909H12C12.1303 12.9914 12.2595 12.966 12.38 12.9162C12.5005 12.8664 12.6099 12.7932 12.7019 12.7009L20.4439 4.95913C20.629 4.77287 20.7328 4.52095 20.7328 4.25835C20.7328 3.99576 20.629 3.74383 20.4439 3.55757V3.55748Z" fill="#837683"/>
<path d="M13.6612 8.93718L13.8932 8.70524L13.9146 8.66807C13.3324 8.33331 12.6724 8.15736 12.0008 8.15784C11.8902 8.15784 11.7809 8.1636 11.6727 8.17284C12.3946 8.23396 13.0842 8.49905 13.6612 8.93718ZM15.3335 10.0857L15.2955 10.1076L14.8882 10.5148C15.1225 11.0732 15.2214 11.6791 15.177 12.283C15.1325 12.8869 14.9459 13.4717 14.6324 13.9898C14.3189 14.5079 13.8873 14.9445 13.373 15.264C12.8586 15.5836 12.276 15.777 11.6726 15.8285C11.7809 15.8379 11.8902 15.8435 12.0007 15.8435C12.6746 15.8432 13.3365 15.6659 13.9202 15.3292C14.5039 14.9924 14.9888 14.5082 15.3264 13.925C15.664 13.3419 15.8423 12.6802 15.8436 12.0063C15.8448 11.3325 15.669 10.6702 15.3335 10.0857Z" fill="#FD4755"/>
<path d="M20.444 3.55748C20.3514 3.46466 20.2412 3.39121 20.1199 3.34143C20.2461 3.53238 20.3027 3.76097 20.2801 3.98873C20.2575 4.2165 20.1571 4.42953 19.9959 4.59196L12.2542 12.3337C12.1622 12.426 12.0528 12.4992 11.9323 12.549C11.8118 12.5988 11.6826 12.6242 11.5522 12.6237H11.5511C11.4221 12.6238 11.2942 12.5986 11.1748 12.5497C11.2656 12.6852 11.3882 12.7962 11.5319 12.8732C11.6757 12.9501 11.8361 12.9905 11.9991 12.9909H12.0001C12.1305 12.9914 12.2596 12.966 12.3801 12.9162C12.5006 12.8664 12.61 12.7932 12.702 12.7009L20.444 4.95913C20.6291 4.77287 20.7329 4.52095 20.7329 4.25835C20.7329 3.99576 20.6291 3.74383 20.444 3.55757V3.55748Z" fill="#685E68"/>
<path d="M14.1627 5.66009C14.1542 5.62831 14.1542 5.59486 14.1628 5.56308C14.1713 5.53131 14.188 5.50233 14.2113 5.47906L17.8653 1.82375C17.8885 1.80047 17.9175 1.78372 17.9493 1.7752C17.9811 1.76667 18.0146 1.76667 18.0464 1.77519C18.0782 1.7837 18.1072 1.80044 18.1305 1.82372C18.1537 1.847 18.1705 1.876 18.179 1.9078L18.7098 3.88864L14.7488 7.84986L14.1627 5.66009ZM22.2248 5.95362C22.2163 5.92183 22.1995 5.89284 22.1763 5.86957C22.153 5.8463 22.124 5.82957 22.0922 5.82106L20.1115 5.29138L16.1512 9.25166L18.3412 9.83848C18.373 9.847 18.4065 9.847 18.4383 9.83847C18.4701 9.82995 18.4991 9.8132 18.5224 9.78992L22.1764 6.13461C22.1996 6.11134 22.2163 6.08237 22.2248 6.05061C22.2333 6.01884 22.2333 5.98539 22.2248 5.95362Z" fill="#FFC338"/>
<path d="M22.2248 5.95364C22.2162 5.92185 22.1995 5.89285 22.1762 5.86958C22.1529 5.84631 22.1239 5.82959 22.0921 5.82108L21.5605 5.67896C21.5917 5.68809 21.62 5.7052 21.6426 5.72859C21.6652 5.75199 21.6813 5.78086 21.6893 5.81236C21.6974 5.84387 21.6971 5.87693 21.6885 5.90829C21.6798 5.93964 21.6632 5.96821 21.6402 5.99119L17.9862 9.6465C17.963 9.66977 17.934 9.68652 17.9022 9.69504C17.8704 9.70356 17.837 9.70357 17.8052 9.69506L18.341 9.83864C18.3728 9.84716 18.4063 9.84716 18.4381 9.83863C18.4699 9.83011 18.4988 9.81336 18.5221 9.79008L22.1761 6.13477C22.1994 6.11151 22.2162 6.08252 22.2247 6.05073C22.2333 6.01893 22.2333 5.98545 22.2248 5.95364ZM18.1738 3.74508L15.6084 6.3105L14.6051 7.31381L14.7485 7.84988L18.7097 3.88866L18.5661 3.35278L18.1738 3.74508Z" fill="#EFB135"/>
</g>
<defs>
<clipPath id="clip0_234_78">
<rect width="24" height="24" fill="white"/>
</clipPath>
</defs>
</svg>
