<svg width="24" height="24" viewBox="0 0 24 24" fill="none" xmlns="http://www.w3.org/2000/svg">
<g clip-path="url(#clip0_205_68)">
<path d="M12 24C18.6274 24 24 18.6274 24 12C24 5.37258 18.6274 0 12 0C5.37258 0 0 5.37258 0 12C0 18.6274 5.37258 24 12 24Z" fill="#FFD400"/>
<path d="M24 12C24 11.7656 23.9925 11.533 23.9793 11.3019L17.284 4.60664L16.9688 5.53125L15.9708 5.48438L13.4871 3L3 13.4871L5.48438 15.9708L6.70327 19.3806L11.3019 23.9793C11.533 23.9925 11.7656 24 12 24C18.6274 24 24 18.6274 24 12Z" fill="#FF9F00"/>
<path d="M21 13.4871V10.5129L18.5601 10.0277C18.423 9.58477 18.2543 9.16289 18.0328 8.75156L19.3934 6.71602L17.284 4.60664L15.2484 5.96723C14.8371 5.74575 14.4152 5.57695 13.9723 5.43989L13.4871 3H10.5129L10.0277 5.43989C9.58477 5.57695 9.16289 5.74575 8.75156 5.96723L6.71602 4.60664L4.60664 6.71602L5.96723 8.75156C5.74575 9.16289 5.57695 9.58481 5.43989 10.0277L3 10.5129V13.4871L5.43989 13.9723C5.57695 14.4152 5.74575 14.8371 5.96723 15.2484L4.60664 17.284L6.71602 19.3934L8.75156 18.0328C9.16289 18.2543 9.58481 18.423 10.0277 18.5601L10.5129 21H13.4871L13.9723 18.5601C14.4152 18.423 14.8371 18.2543 15.2484 18.0328L17.284 19.3934L19.3934 17.284L18.0328 15.2484C18.2543 14.8371 18.423 14.4152 18.5601 13.9723L21 13.4871ZM12 15.6914C9.96445 15.6914 8.30859 14.0355 8.30859 12C8.30859 9.96445 9.96445 8.30859 12 8.30859C14.0355 8.30859 15.6914 9.96445 15.6914 12C15.6914 14.0355 14.0355 15.6914 12 15.6914Z" fill="#5A5A5A"/>
<path d="M18.5601 13.9723C18.423 14.4152 18.2543 14.8371 18.0328 15.2484L19.3934 17.284L17.284 19.3934L15.2484 18.0328C14.8371 18.2543 14.4152 18.423 13.9723 18.5601L13.4871 21H12V15.6914C14.0355 15.6914 15.6914 14.0355 15.6914 12C15.6914 9.96445 14.0355 8.30859 12 8.30859V3H13.4871L13.9722 5.43989C14.4152 5.57695 14.8371 5.74575 15.2484 5.96723L17.2839 4.60664L19.3933 6.71602L18.0328 8.75156C18.2543 9.16289 18.423 9.58481 18.5601 10.0277L21 10.5129V13.4871L18.5601 13.9723Z" fill="#444444"/>
</g>
<defs>
<clipPath id="clip0_205_68">
<rect width="24" height="24" fill="white"/>
</clipPath>
</defs>
</svg>
