<svg width="24" height="24" viewBox="0 0 24 24" fill="none" xmlns="http://www.w3.org/2000/svg">
<g clip-path="url(#clip0_205_98)">
<path d="M12 24C18.6274 24 24 18.6274 24 12C24 5.37258 18.6274 0 12 0C5.37258 0 0 5.37258 0 12C0 18.6274 5.37258 24 12 24Z" fill="#52525B"/>
<path d="M24 12C24 10.1688 23.5898 8.4334 22.8563 6.88062L20.1529 4.17725L3.84708 9.61301L8.12855 13.8945L6.16069 20.4759L9.40299 23.7182C10.2393 23.9028 11.1083 24 12 24C18.6274 24 24 18.6274 24 12Z" fill="#2C2C33"/>
<path d="M6.16069 9.56616H17.8393V20.4759H6.16069V9.56616Z" fill="#EF4D37"/>
<path d="M12 9.56616H17.8393V20.4759H12V9.56616Z" fill="#C62C18"/>
<path d="M20.1529 9.61301H3.84708L5.37553 6.89515L3.84708 4.17725H20.1529L18.9191 6.89515L20.1529 9.61301Z" fill="#FFE029"/>
<path d="M20.1529 9.61301L18.9191 6.89515L20.1529 4.17725H12V9.61301H20.1529Z" fill="#FFBA1F"/>
<path d="M7.90416 5.96826H8.64436V8.65978H9.48225V5.96826H10.2285V5.13037H7.90416V5.96826Z" fill="#52525B"/>
<path d="M15.4181 5.13037H14.2497V8.65978H15.0876V7.48842C15.2135 7.48781 15.3394 7.48734 15.4181 7.48734C16.0762 7.48734 16.6115 6.95868 16.6115 6.30886C16.6115 5.65903 16.0762 5.13037 15.4181 5.13037ZM15.4181 6.64945C15.3399 6.64945 15.2156 6.64992 15.0906 6.65053C15.09 6.52021 15.0895 6.38962 15.0895 6.30886C15.0895 6.23967 15.0892 6.10518 15.0889 5.96826H15.4181C15.6108 5.96826 15.7736 6.12426 15.7736 6.30886C15.7736 6.49345 15.6108 6.64945 15.4181 6.64945Z" fill="#2C2C33"/>
<path d="M12.1429 5.13037C11.1698 5.13037 10.3782 5.922 10.3782 6.89507C10.3782 7.86811 11.1698 8.65978 12.1429 8.65978C13.116 8.65978 13.9077 7.86811 13.9077 6.89507C13.9077 5.922 13.116 5.13037 12.1429 5.13037ZM12.1429 7.82189C11.6318 7.82189 11.2161 7.40611 11.2161 6.89507C11.2161 6.38404 11.6318 5.96826 12.1429 5.96826C12.654 5.96826 13.0698 6.38404 13.0698 6.89507C13.0698 7.40611 12.654 7.82189 12.1429 7.82189Z" fill="#52525B"/>
<path d="M10.6795 11.5278V18.5371H9.29794V13.1711L8.48667 13.5364L7.91949 12.2769L9.5842 11.5278H10.6795ZM13.6039 18.5371C12.3608 18.5371 11.3495 17.5259 11.3495 16.2828V13.7822C11.3495 12.5391 12.3608 11.5278 13.6039 11.5278C14.847 11.5278 15.8582 12.5392 15.8582 13.7822V16.2828C15.8582 17.5258 14.847 18.5371 13.6039 18.5371ZM13.6039 12.9093C13.1226 12.9093 12.7311 13.3009 12.7311 13.7821V16.2827C12.7311 16.764 13.1226 17.1556 13.6039 17.1556C14.0851 17.1556 14.4767 16.764 14.4767 16.2827V13.7821C14.4767 13.3009 14.0851 12.9093 13.6039 12.9093Z" fill="white"/>
<path d="M12.1429 5.96826C12.654 5.96826 13.0698 6.38404 13.0698 6.89507C13.0698 7.40611 12.654 7.82189 12.1429 7.82189C12.0943 7.82189 12.0466 7.81814 12 7.81087V8.65401C12.0472 8.65781 12.0948 8.65978 12.1429 8.65978C13.116 8.65978 13.9077 7.86811 13.9077 6.89507C13.9077 5.922 13.116 5.13037 12.1429 5.13037C12.0948 5.13037 12.0472 5.13234 12 5.13614V5.97928C12.0473 5.97192 12.0951 5.96824 12.1429 5.96826Z" fill="#2C2C33"/>
<path d="M13.6039 18.5371C14.847 18.5371 15.8582 17.5259 15.8582 16.2828V13.7822C15.8582 12.5391 14.847 11.5278 13.6039 11.5278C12.977 11.5278 12.409 11.7851 12 12.1995V17.8655C12.409 18.2799 12.9769 18.5371 13.6039 18.5371ZM12.731 13.7822C12.731 13.3009 13.1226 12.9094 13.6038 12.9094C14.0851 12.9094 14.4766 13.3009 14.4766 13.7822V16.2828C14.4766 16.7641 14.0851 17.1556 13.6038 17.1556C13.1226 17.1556 12.731 16.7641 12.731 16.2828V13.7822Z" fill="#E0E0E0"/>
</g>
<defs>
<clipPath id="clip0_205_98">
<rect width="24" height="24" fill="white"/>
</clipPath>
</defs>
</svg>
