<svg width="17" height="17" viewBox="0 0 17 17" fill="none" xmlns="http://www.w3.org/2000/svg">
<path d="M5.3125 3.05469V3.58594H4.25C3.66413 3.58594 3.1875 4.06257 3.1875 4.64844V5.20183C3.1875 6.37357 4.14076 7.32683 5.3125 7.32683H6.13282C6.7162 7.9734 7.56058 8.37984 8.5 8.37984C10.2604 8.37984 11.6875 6.95277 11.6875 5.19234V3.05469H5.3125ZM5.3125 6.26433C4.72663 6.26433 4.25 5.7877 4.25 5.20183V4.64844H5.3125V5.19234C5.31216 5.55764 5.37473 5.92027 5.49747 6.26433H5.3125Z" fill="#FBBE18"/>
<path d="M10.7831 12.8828C10.7831 12.4602 10.4405 12.1176 10.0179 12.1176C9.3839 12.1176 8.86999 11.6036 8.86999 10.9697V8.18854H8.10472V10.9697C8.10472 11.6036 7.5908 12.1176 6.95686 12.1176C6.53421 12.1176 6.19159 12.4602 6.19159 12.8828H10.7831Z" fill="#FBBE18"/>
<path d="M10.7831 12.8828C10.7831 12.4602 10.4405 12.1175 10.0178 12.1175C9.3839 12.1175 8.86998 11.6036 8.86998 10.9697V8.18852H8.10472V9.1451H8.48735V12.8828H10.7831ZM11.6875 3.05469H5.3125C5.01908 3.05469 4.78125 2.81685 4.78125 2.52344C4.78125 2.23002 5.01908 1.99219 5.3125 1.99219H11.6875C11.9809 1.99219 12.2188 2.23002 12.2188 2.52344C12.2188 2.81685 11.9809 3.05469 11.6875 3.05469Z" fill="#F68820"/>
<path d="M8.5 3.05469H5.3125C5.01908 3.05469 4.78125 2.81685 4.78125 2.52344C4.78125 2.23002 5.01908 1.99219 5.3125 1.99219H8.5C8.79342 1.99219 9.03125 2.23002 9.03125 2.52344C9.03125 2.81685 8.79342 3.05469 8.5 3.05469Z" fill="#FBBE18"/>
<path d="M12.75 3.58594H11.6875V3.05469H5.3125V3.58594H8.5V5.19234C8.5 6.37214 7.85898 7.40217 6.90625 7.95331C7.37511 8.22455 7.91941 8.37984 8.5 8.37984C9.43942 8.37984 10.2838 7.97337 10.8672 7.32683H11.6875C12.8592 7.32683 13.8125 6.37357 13.8125 5.20183V4.64844C13.8125 4.06257 13.3359 3.58594 12.75 3.58594ZM12.75 5.20183C12.75 5.7877 12.2734 6.26433 11.6875 6.26433H11.5025C11.6253 5.92027 11.6878 5.55764 11.6875 5.19234V4.64844H12.75V5.20183Z" fill="#F68820"/>
<path d="M6.90625 5.71094C7.19965 5.71094 7.4375 5.47309 7.4375 5.17969C7.4375 4.88629 7.19965 4.64844 6.90625 4.64844C6.61285 4.64844 6.375 4.88629 6.375 5.17969C6.375 5.47309 6.61285 5.71094 6.90625 5.71094Z" fill="#FBD301"/>
<path d="M7.4375 9.96094H6.90625V9.69531C6.90625 9.25521 6.54948 8.89844 6.10938 8.89844H4.78125C4.19445 8.89844 3.71875 9.37414 3.71875 9.96094V14.4766C3.88717 14.645 4.08712 14.7786 4.30718 14.8697C4.52724 14.9609 4.7631 15.0078 5.00129 15.0078H7.4375C8.0243 15.0078 8.5 14.5321 8.5 13.9453V11.0234C8.5 10.4366 8.0243 9.96094 7.4375 9.96094Z" fill="#464646"/>
<path d="M2.125 14.2109V10.2266C2.125 10.1561 2.15299 10.0886 2.2028 10.0387C2.25261 9.98892 2.32018 9.96094 2.39062 9.96094H3.71875V14.4766H2.39062C2.32018 14.4766 2.25261 14.4486 2.2028 14.3988C2.15299 14.3489 2.125 14.2814 2.125 14.2109Z" fill="#323232"/>
<path d="M2.125 12.0859V10.2266C2.125 10.1561 2.15299 10.0886 2.2028 10.0387C2.25261 9.98892 2.32018 9.96094 2.39062 9.96094H3.1875V12.0859H2.125Z" fill="#464646"/>
<path d="M5.3125 9.82812C5.3125 9.86335 5.32649 9.89713 5.3514 9.92204C5.37631 9.94694 5.41009 9.96094 5.44531 9.96094H6.90625V9.69531H5.44531C5.41009 9.69531 5.37631 9.70931 5.3514 9.73421C5.32649 9.75912 5.3125 9.7929 5.3125 9.82812Z" fill="#323232"/>
<path d="M7.4375 11.0234H5.57812C5.50768 11.0234 5.44011 10.9955 5.3903 10.9456C5.34049 10.8958 5.3125 10.8283 5.3125 10.7578C5.3125 10.6874 5.34049 10.6198 5.3903 10.57C5.44011 10.5202 5.50768 10.4922 5.57812 10.4922H7.4375C7.50795 10.4922 7.57551 10.5202 7.62533 10.57C7.67514 10.6198 7.70312 10.6874 7.70312 10.7578C7.70312 10.8283 7.67514 10.8958 7.62533 10.9456C7.57551 10.9955 7.50795 11.0234 7.4375 11.0234Z" fill="#58595B"/>
<path d="M2.65625 10.8464V12.0859H3.1875V10.8464C3.1875 10.7759 3.15951 10.7084 3.1097 10.6585C3.05989 10.6087 2.99232 10.5807 2.92188 10.5807C2.85143 10.5807 2.78386 10.6087 2.73405 10.6585C2.68424 10.7084 2.65625 10.7759 2.65625 10.8464Z" fill="#D7E6F0"/>
<path d="M2.65625 12.0859V13.5911C2.65625 13.6616 2.68424 13.7291 2.73405 13.779C2.78386 13.8288 2.85143 13.8568 2.92188 13.8568C2.99232 13.8568 3.05989 13.8288 3.1097 13.779C3.15951 13.7291 3.1875 13.6616 3.1875 13.5911V12.0859H2.65625Z" fill="#8CAAC8"/>
<path d="M2.125 14.2109H0.53125V10.2266H2.125V14.2109Z" fill="#FAB991"/>
<path d="M2.125 14.2109H0.53125V12.0859H2.125V14.2109Z" fill="#F0915A"/>
<path d="M12.2188 8.89844H10.8906C10.4505 8.89844 10.0938 9.25521 10.0938 9.69531V9.96094H9.5625C8.9757 9.96094 8.5 10.4366 8.5 11.0234V13.9453C8.5 14.5321 8.9757 15.0078 9.5625 15.0078H11.9987C12.2369 15.0078 12.4728 14.9609 12.6928 14.8698C12.9129 14.7786 13.1128 14.645 13.2812 14.4766V9.96094C13.2812 9.37414 12.8055 8.89844 12.2188 8.89844Z" fill="#F04B37"/>
<path d="M11.4219 11.0234H9.5625C9.49205 11.0234 9.42449 10.9955 9.37467 10.9456C9.32486 10.8958 9.29688 10.8283 9.29688 10.7578C9.29688 10.6874 9.32486 10.6198 9.37467 10.57C9.42449 10.5202 9.49205 10.4922 9.5625 10.4922H11.4219C11.4923 10.4922 11.5599 10.5202 11.6097 10.57C11.6595 10.6198 11.6875 10.6874 11.6875 10.7578C11.6875 10.8283 11.6595 10.8958 11.6097 10.9456C11.5599 10.9955 11.4923 11.0234 11.4219 11.0234Z" fill="#FF6955"/>
<path d="M14.875 14.2109V10.2266C14.875 10.1561 14.847 10.0886 14.7972 10.0387C14.7474 9.98892 14.6798 9.96094 14.6094 9.96094H13.2812V14.4766H14.6094C14.6798 14.4766 14.7474 14.4486 14.7972 14.3988C14.847 14.3489 14.875 14.2814 14.875 14.2109Z" fill="#BE281E"/>
<path d="M14.875 12.0859V10.2266C14.875 10.1561 14.847 10.0886 14.7972 10.0387C14.7474 9.98892 14.6798 9.96094 14.6094 9.96094H13.8125V12.0859H14.875Z" fill="#F04B37"/>
<path d="M11.6875 9.82812C11.6875 9.86335 11.6735 9.89713 11.6486 9.92204C11.6237 9.94694 11.5899 9.96094 11.5547 9.96094H10.0938V9.69531H11.5547C11.5899 9.69531 11.6237 9.70931 11.6486 9.73421C11.6735 9.75912 11.6875 9.7929 11.6875 9.82812Z" fill="#BE281E"/>
<path d="M14.3438 10.8464V12.0859H13.8125V10.8464C13.8125 10.7759 13.8405 10.7084 13.8903 10.6585C13.9401 10.6087 14.0077 10.5807 14.0781 10.5807C14.1486 10.5807 14.2161 10.6087 14.266 10.6585C14.3158 10.7084 14.3438 10.7759 14.3438 10.8464Z" fill="#D7E6F0"/>
<path d="M14.3438 12.0859V13.5911C14.3438 13.6616 14.3158 13.7291 14.266 13.779C14.2161 13.8288 14.1486 13.8568 14.0781 13.8568C14.0077 13.8568 13.9401 13.8288 13.8903 13.779C13.8405 13.7291 13.8125 13.6616 13.8125 13.5911V12.0859H14.3438Z" fill="#8CAAC8"/>
<path d="M14.875 10.2266H16.4688V14.2109H14.875V10.2266Z" fill="#FAB991"/>
<path d="M14.875 12.0859H16.4688V14.2109H14.875V12.0859Z" fill="#F0915A"/>
<path d="M13.8125 7.83594H13.2812V7.30469C13.2812 7.23424 13.3092 7.16668 13.359 7.11686C13.4089 7.06705 13.4764 7.03906 13.5469 7.03906C13.6173 7.03906 13.6849 7.06705 13.7347 7.11686C13.7845 7.16668 13.8125 7.23424 13.8125 7.30469V7.83594ZM14.6094 8.10156C14.6094 8.17201 14.5814 8.23957 14.5316 8.28939C14.4818 8.3392 14.4142 8.36719 14.3438 8.36719H13.8125V7.83594H14.3438C14.4142 7.83594 14.4818 7.86392 14.5316 7.91374C14.5814 7.96355 14.6094 8.03111 14.6094 8.10156ZM13.2812 8.36719H13.8125V8.89844C13.8125 8.96889 13.7845 9.03645 13.7347 9.08626C13.6849 9.13608 13.6173 9.16406 13.5469 9.16406C13.4764 9.16406 13.4089 9.13608 13.359 9.08626C13.3092 9.03645 13.2812 8.96889 13.2812 8.89844V8.36719ZM12.4844 8.10156C12.4844 8.03111 12.5124 7.96355 12.5622 7.91374C12.612 7.86392 12.6796 7.83594 12.75 7.83594H13.2812V8.36719H12.75C12.6796 8.36719 12.612 8.3392 12.5622 8.28939C12.5124 8.23957 12.4844 8.17201 12.4844 8.10156ZM3.71875 7.83594H3.1875V7.30469C3.1875 7.23424 3.21549 7.16668 3.2653 7.11686C3.31511 7.06705 3.38268 7.03906 3.45312 7.03906C3.52357 7.03906 3.59114 7.06705 3.64095 7.11686C3.69076 7.16668 3.71875 7.23424 3.71875 7.30469V7.83594ZM4.51562 8.10156C4.51562 8.17201 4.48764 8.23957 4.43783 8.28939C4.38801 8.3392 4.32045 8.36719 4.25 8.36719H3.71875V7.83594H4.25C4.32045 7.83594 4.38801 7.86392 4.43783 7.91374C4.48764 7.96355 4.51562 8.03111 4.51562 8.10156ZM3.1875 8.36719H3.71875V8.89844C3.71875 8.96889 3.69076 9.03645 3.64095 9.08626C3.59114 9.13608 3.52357 9.16406 3.45312 9.16406C3.38268 9.16406 3.31511 9.13608 3.2653 9.08626C3.21549 9.03645 3.1875 8.96889 3.1875 8.89844V8.36719ZM2.39062 8.10156C2.39062 8.03111 2.41861 7.96355 2.46842 7.91374C2.51824 7.86392 2.5858 7.83594 2.65625 7.83594H3.1875V8.36719H2.65625C2.5858 8.36719 2.51824 8.3392 2.46842 8.28939C2.41861 8.23957 2.39062 8.17201 2.39062 8.10156Z" fill="#FABE19"/>
</svg>
