<svg width="17" height="17" viewBox="0 0 17 17" fill="none" xmlns="http://www.w3.org/2000/svg">
<g clip-path="url(#clip0_216_107)">
<path d="M16.7961 5.56249L15.3231 5.03369H15.3231C15.2397 4.77999 15.1373 4.53294 15.0167 4.29466L15.6846 2.87904C15.7063 2.83294 15.7133 2.78125 15.7046 2.73103C15.6958 2.68081 15.6718 2.63451 15.6357 2.59848L14.3616 1.32424C14.3256 1.28819 14.2793 1.26416 14.2291 1.25542C14.1788 1.24667 14.1271 1.25365 14.081 1.2754L12.6654 1.94325H12.6654C12.4271 1.82266 12.18 1.72025 11.9263 1.63688L11.3976 0.163857C11.3803 0.115887 11.3487 0.0744054 11.307 0.0450781C11.2653 0.0157508 11.2156 7.9916e-06 11.1647 0L9.36265 0C9.31168 3.18262e-06 9.26195 0.0157441 9.22026 0.0450721C9.17857 0.0744001 9.14696 0.115885 9.12973 0.163857L8.60104 1.63688C8.3473 1.72026 8.10022 1.82267 7.8619 1.94325L6.44632 1.27543C6.40022 1.25367 6.34852 1.24669 6.2983 1.25544C6.24808 1.26419 6.20178 1.28824 6.16575 1.32431L4.89155 2.59848C4.85551 2.63451 4.83148 2.68079 4.82274 2.731C4.81401 2.78121 4.82099 2.83289 4.84274 2.87898L5.51056 4.29459C5.39005 4.53292 5.28767 4.77998 5.20429 5.03369L3.7312 5.56249C3.68323 5.57971 3.64176 5.61132 3.61243 5.653C3.58311 5.69469 3.56738 5.74441 3.56738 5.79537V7.59731C3.56738 7.64828 3.58312 7.69801 3.61245 7.73969C3.64178 7.78138 3.68326 7.813 3.73123 7.83023L5.20429 8.35892C5.28762 8.61263 5.39 8.85968 5.51056 9.09796L4.84274 10.5137C4.821 10.5598 4.81402 10.6115 4.82275 10.6617C4.83149 10.7119 4.85552 10.7582 4.89155 10.7942L6.16579 12.0684C6.20183 12.1044 6.24812 12.1285 6.29834 12.1372C6.34855 12.146 6.40025 12.139 6.44635 12.1173L7.86194 11.4495C8.10026 11.57 8.34735 11.6724 8.6011 11.7558L9.12976 13.2287C9.14699 13.2767 9.17861 13.3182 9.2203 13.3475C9.26199 13.3768 9.31171 13.3926 9.36268 13.3926H11.1647C11.2157 13.3926 11.2654 13.3768 11.3071 13.3475C11.3488 13.3182 11.3804 13.2767 11.3976 13.2287L11.9263 11.7558C12.18 11.6724 12.4271 11.57 12.6654 11.4495L14.0811 12.1174C14.1272 12.1391 14.1789 12.1461 14.2291 12.1373C14.2793 12.1286 14.3256 12.1045 14.3616 12.0685L15.6358 10.7942C15.6718 10.7582 15.6958 10.7119 15.7046 10.6617C15.7133 10.6114 15.7064 10.5597 15.6846 10.5136L15.0167 9.09812C15.1373 8.85979 15.2397 8.61269 15.3231 8.35892L16.7961 7.83026C16.8441 7.81304 16.8856 7.78143 16.9149 7.73974C16.9442 7.69805 16.96 7.64831 16.96 7.59734V5.79537C16.96 5.74441 16.9442 5.69468 16.9149 5.653C16.8856 5.61132 16.8441 5.57971 16.7961 5.56249ZM10.2921 8.84043C9.10795 8.84043 8.14795 7.8805 8.14795 6.69634C8.14795 5.51215 9.10795 4.55222 10.2921 4.55222C11.4762 4.55222 12.4362 5.51215 12.4362 6.69634C12.4362 7.8805 11.4762 8.84043 10.2921 8.84043Z" fill="#F7AC16"/>
<path d="M10.2636 3.9502C8.74696 3.9502 7.51745 5.17967 7.51745 6.69639C7.51745 8.21301 8.74696 9.44249 10.2636 9.44249C11.7802 9.44249 13.0098 8.21301 13.0098 6.69639C13.0098 5.17967 11.7802 3.9502 10.2636 3.9502ZM10.2636 8.39377C9.32616 8.39377 8.56617 7.63382 8.56617 6.69636C8.56617 5.75887 9.32616 4.99892 10.2636 4.99892C11.201 4.99892 11.9611 5.75887 11.9611 6.69636C11.9611 7.63382 11.201 8.39377 10.2636 8.39377Z" fill="#F27019"/>
<path d="M6.54898 6.69631C6.54898 3.62781 8.61299 1.04152 11.4284 0.249654C11.4026 0.177936 11.3598 0 11.1647 0H9.36265C9.31168 3.18262e-06 9.26195 0.0157441 9.22026 0.0450721C9.17857 0.0744001 9.14696 0.115885 9.12973 0.163857L8.60104 1.63688C8.3473 1.72026 8.10022 1.82267 7.8619 1.94325L6.44632 1.27543C6.40022 1.25367 6.34852 1.24669 6.2983 1.25544C6.24808 1.26419 6.20178 1.28824 6.16575 1.32431L4.89155 2.59848C4.85551 2.63451 4.83148 2.68079 4.82274 2.731C4.81401 2.78121 4.82099 2.83289 4.84274 2.87898L5.51056 4.29459C5.39005 4.53292 5.28767 4.77998 5.20429 5.03369L3.7312 5.56249C3.68323 5.57971 3.64176 5.61132 3.61243 5.653C3.58311 5.69469 3.56738 5.74441 3.56738 5.79537V7.59731C3.56738 7.64828 3.58312 7.69801 3.61245 7.73969C3.64178 7.78138 3.68326 7.813 3.73123 7.83023L5.20429 8.35892C5.28762 8.61263 5.39 8.85968 5.51056 9.09796L4.84274 10.5137C4.821 10.5598 4.81402 10.6115 4.82275 10.6617C4.83149 10.7119 4.85552 10.7582 4.89155 10.7942L6.16579 12.0684C6.20183 12.1044 6.24812 12.1285 6.29834 12.1372C6.34855 12.146 6.40025 12.139 6.44635 12.1173L7.86194 11.4495C8.10026 11.57 8.34735 11.6724 8.6011 11.7558L9.12976 13.2287C9.14699 13.2767 9.17861 13.3182 9.2203 13.3475C9.26199 13.3768 9.31171 13.3926 9.36268 13.3926H11.1647C11.3606 13.3926 11.4033 13.2127 11.4284 13.1429C8.61299 12.3511 6.54898 9.76484 6.54898 6.69631Z" fill="#F2961D"/>
<path d="M9.15898 11.6024L8.1436 11.2379H8.14356C8.08609 11.063 8.01549 10.8927 7.93236 10.7285L8.39272 9.75268C8.40771 9.72091 8.41253 9.68527 8.40651 9.65066C8.40049 9.61604 8.38393 9.58413 8.35909 9.55928L7.4808 8.68092C7.45595 8.65607 7.42404 8.6395 7.38942 8.63348C7.3548 8.62745 7.31917 8.63226 7.28739 8.64725L6.31152 9.10761C6.14724 9.02449 5.97689 8.95389 5.80198 8.89641L5.43754 7.88102C5.42567 7.84795 5.40387 7.81935 5.37513 7.79913C5.34639 7.77892 5.31211 7.76807 5.27697 7.76807H4.03481C3.99967 7.76807 3.9654 7.77893 3.93666 7.79915C3.90792 7.81936 3.88612 7.84796 3.87424 7.88102L3.5098 8.89641C3.33489 8.95387 3.16457 9.02448 3.0003 9.10761L2.02449 8.64729C1.99271 8.63229 1.95707 8.62747 1.92245 8.6335C1.88783 8.63954 1.85592 8.65612 1.83109 8.68099L0.95273 9.55931C0.927883 9.58415 0.911316 9.61606 0.905296 9.65067C0.899275 9.68528 0.904095 9.72091 0.919095 9.75268L1.37942 10.7285C1.29636 10.8928 1.22578 11.0631 1.16828 11.238L0.152967 11.6024C0.119897 11.6143 0.0912996 11.6361 0.0710823 11.6648C0.0508649 11.6936 0.0400132 11.7279 0.0400095 11.763V13.0051C0.0400132 13.0402 0.0508649 13.0745 0.0710823 13.1033C0.0912996 13.132 0.119897 13.1538 0.152967 13.1657L1.16838 13.5301C1.22582 13.705 1.2964 13.8753 1.37952 14.0395L0.919195 15.0154C0.904209 15.0472 0.899397 15.0828 0.905417 15.1175C0.911437 15.1521 0.927995 15.184 0.95283 15.2088L1.83119 16.0871C1.85604 16.112 1.88795 16.1285 1.92256 16.1346C1.95717 16.1406 1.99281 16.1358 2.02459 16.1208L3.0004 15.6605C3.16468 15.7436 3.33501 15.8142 3.50994 15.8717L3.87434 16.887C3.88622 16.9201 3.90801 16.9487 3.93675 16.9689C3.96549 16.9891 3.99977 17 4.03491 17H5.27707C5.31221 17 5.34649 16.9891 5.37523 16.9689C5.40396 16.9487 5.42576 16.9201 5.43764 16.887L5.80205 15.8717C5.97696 15.8142 6.14728 15.7437 6.31155 15.6605L7.28742 16.1209C7.31921 16.1359 7.35484 16.1407 7.38945 16.1347C7.42406 16.1286 7.45597 16.1121 7.48083 16.0872L8.35915 15.2089C8.384 15.184 8.40057 15.1521 8.40659 15.1175C8.41261 15.0829 8.40779 15.0472 8.39279 15.0154L7.93243 14.0397C8.01554 13.8754 8.08613 13.7051 8.1436 13.5301L9.15898 13.1657C9.19205 13.1539 9.22065 13.1321 9.24087 13.1033C9.26109 13.0746 9.27194 13.0403 9.27194 13.0052V11.7631C9.27194 11.7279 9.26109 11.6936 9.24087 11.6649C9.22066 11.6361 9.19206 11.6143 9.15898 11.6024ZM4.65597 13.7572C3.89758 13.7572 3.28279 13.1424 3.28279 12.384C3.28279 11.6256 3.89758 11.0108 4.65597 11.0108C5.41437 11.0108 6.02916 11.6256 6.02916 12.384C6.02916 13.1424 5.41437 13.7572 4.65597 13.7572Z" fill="#F7AC16"/>
<path d="M4.65597 10.491C3.61051 10.491 2.76296 11.3385 2.76296 12.384C2.76296 13.4294 3.61051 14.2769 4.65597 14.2769C5.70144 14.2769 6.54898 13.4294 6.54898 12.384C6.54898 11.3385 5.70144 10.491 4.65597 10.491ZM4.65597 13.3305C4.13322 13.3305 3.70945 12.9067 3.70945 12.384C3.70945 11.8612 4.13322 11.4375 4.65597 11.4375C5.17872 11.4375 5.6025 11.8612 5.6025 12.384C5.60246 12.9067 5.17872 13.3305 4.65597 13.3305Z" fill="#F27019"/>
<path d="M8.21684 6.69639C8.21684 5.29824 9.26191 4.14503 10.6133 3.97314C8.95764 3.7626 7.51745 5.05207 7.51745 6.69639C7.51745 8.33928 8.95615 9.63005 10.6133 9.41955C9.26191 9.24765 8.21684 8.09444 8.21684 6.69639ZM3.46232 12.3841C3.46232 11.4581 4.12731 10.688 5.00564 10.5238C3.83689 10.3054 2.76293 11.201 2.76293 12.3841C2.76293 13.5654 3.83506 14.463 5.00564 14.2443C4.12735 14.0801 3.46232 13.31 3.46232 12.3841Z" fill="#E26814"/>
<path d="M2.18493 12.3727C2.18493 10.2896 3.56834 8.52991 5.46643 7.96137C5.4407 7.88966 5.41334 7.76807 5.27704 7.76807H4.03488C3.99974 7.76807 3.96546 7.77893 3.93672 7.79915C3.90799 7.81936 3.88619 7.84796 3.87431 7.88102L3.50987 8.89641C3.33496 8.95387 3.16464 9.02448 3.00037 9.10761L2.02456 8.64729C1.99278 8.63229 1.95714 8.62747 1.92252 8.6335C1.8879 8.63954 1.85599 8.65612 1.83115 8.68099L0.952797 9.55931C0.92795 9.58415 0.911383 9.61606 0.905362 9.65067C0.899342 9.68528 0.904161 9.72091 0.919162 9.75268L1.37949 10.7285C1.29643 10.8928 1.22585 11.0631 1.16835 11.238L0.152967 11.6025C0.119897 11.6143 0.0912996 11.6361 0.0710823 11.6649C0.0508649 11.6936 0.0400132 11.7279 0.0400095 11.763V13.0051C0.0400132 13.0403 0.0508649 13.0745 0.0710823 13.1033C0.0912996 13.132 0.119897 13.1538 0.152967 13.1657L1.16838 13.5301C1.22582 13.705 1.2964 13.8753 1.37952 14.0396L0.919195 15.0155C0.904209 15.0473 0.899397 15.0829 0.905417 15.1175C0.911437 15.1521 0.927995 15.184 0.95283 15.2089L1.83119 16.0872C1.85604 16.112 1.88795 16.1286 1.92256 16.1346C1.95717 16.1406 1.99281 16.1358 2.02459 16.1209L3.0004 15.6605C3.16468 15.7437 3.33501 15.8143 3.50994 15.8717L3.87434 16.8871C3.88622 16.9201 3.90801 16.9487 3.93675 16.969C3.96549 16.9892 3.99977 17 4.03491 17H5.27707C5.31221 17 5.34649 16.9892 5.37523 16.9689C5.40396 16.9487 5.42576 16.9201 5.43764 16.8871L5.47383 16.7863C3.57193 16.2201 2.18493 14.4585 2.18493 12.3727Z" fill="#F2961D"/>
</g>
<defs>
<clipPath id="clip0_216_107">
<rect width="17" height="17" fill="white"/>
</clipPath>
</defs>
</svg>
