<svg width="24" height="24" viewBox="0 0 24 24" fill="none" xmlns="http://www.w3.org/2000/svg">
<g clip-path="url(#clip0_205_74)">
<path d="M23.9062 10.4438C23.1375 4.55625 18.0938 0 12 0C5.38125 0 0 5.3625 0 12C0 17.9062 4.25625 22.8 9.88125 23.8125C10.575 23.9437 11.2875 24 12 24C18.6187 24 24 18.6187 24 12C24 11.475 23.9625 10.95 23.9062 10.4438Z" fill="#4FBF9F"/>
<path opacity="0.2" d="M23.9063 10.4437L20.6625 7.19998L20.5688 7.27498L18.0375 4.72498L15.4313 5.49373L13.8188 11.25L4.70625 18.675L9.88125 23.8125C10.575 23.9437 11.2875 24 12 24C18.6188 24 24 18.6187 24 12C24 11.475 23.9625 10.95 23.9063 10.4437Z" fill="url(#paint0_linear_205_74)"/>
<path d="M16.9125 4.16248H6.69375C7.6875 4.48123 7.96875 5.73748 7.5 6.56248C7.425 6.67498 7.5 6.84373 7.63125 6.84373H17.5875C17.8688 6.84373 18.1313 6.67498 18.2438 6.39373C18.2813 6.31873 18.3 6.22498 18.3375 6.13123C18.5813 5.13748 17.85 4.16248 16.9125 4.16248Z" fill="#F5C359"/>
<path d="M16.4625 4.83755C16.9125 3.9938 17.6062 4.35005 17.625 4.3688C17.4375 4.23755 17.1375 4.0688 16.8 4.05005H7.06875C6.20625 4.05005 5.45625 4.68755 5.25 5.62505C4.29375 10.1063 7.95 14.5688 5.79375 19.05H15.525C16.3875 19.05 17.1375 18.4125 17.3438 17.475C18.225 13.2375 15.0375 9.03755 16.4625 4.83755Z" fill="#FCD463"/>
<path d="M14.3437 7.74373H6.88125C6.8625 7.48123 6.8625 7.21873 6.8625 6.97498H14.325C14.325 7.21873 14.325 7.48123 14.3437 7.74373ZM14.7937 10.3875H7.33125C7.275 10.125 7.21875 9.86248 7.1625 9.61873H14.625C14.6625 9.88123 14.7187 10.125 14.7937 10.3875ZM15.4313 13.0312H7.96875C7.9125 12.7687 7.85625 12.5062 7.8 12.2625H15.2625C15.3187 12.525 15.375 12.7875 15.4313 13.0312ZM15.7125 15.6937H8.25C8.25 15.4312 8.25 15.1687 8.23125 14.925H15.6937C15.7125 15.1687 15.7313 15.4312 15.7125 15.6937Z" fill="#F5C359"/>
<path d="M19.575 8.15629C19.9125 7.89379 20.25 7.63129 20.625 7.38754C20.7188 7.33129 20.7188 7.20004 20.6063 7.16254C19.6875 6.80629 18.4875 6.91879 17.55 7.50004C17.2313 7.68754 16.8938 7.93129 16.5563 7.91254V7.76254C16.5563 7.66879 16.4438 7.61254 16.35 7.66879C15.6 8.06254 14.8688 8.51254 14.1563 9.00004C14.1563 8.94379 14.1375 8.88754 14.1375 8.81254C14.1188 8.70004 13.9875 8.68129 13.8938 8.75629C13.4438 9.16879 13.0688 9.63754 12.7688 10.1625C12.6938 10.3125 12.6 10.4625 12.45 10.5375C12.375 10.575 12.3 10.575 12.2438 10.5375C12.1688 10.5 12.075 10.5563 12.0375 10.6313C11.3813 11.85 10.9688 13.2188 11.3625 14.2875C11.5125 15.225 10.9313 16.3875 11.175 17.3438C11.1938 17.4 11.25 17.3813 11.25 17.325C11.2875 15.1688 12.9 13.1438 14.775 12.375C14.8875 12.3375 15 12.2813 15.0375 12.1875C15.0938 12.0938 15.0188 11.9438 14.9063 11.9625C15.4688 11.7188 16.0313 11.475 16.5938 11.2688C16.6688 11.25 16.7625 11.1938 16.7625 11.1188C16.7813 11.0063 16.5938 10.9125 16.6313 10.8C16.65 10.7625 16.6688 10.7438 16.7063 10.7063C16.9688 10.5188 17.3063 10.4625 17.5875 10.3125C17.8688 10.1625 18.1313 9.84379 18 9.56254C18.375 9.35629 18.7688 9.16879 19.1625 9.00004C19.275 8.94379 19.3875 8.88754 19.4813 8.81254C19.8563 8.51254 19.425 8.43754 19.4813 8.25004L19.575 8.15629Z" fill="#ECF0F3"/>
<path d="M10.9312 17.2875C10.9312 17.4563 11.0437 17.5875 11.2125 17.5688C11.3625 17.55 11.475 17.4 11.4562 17.25C11.3437 14.2688 13.0687 11.7 14.6625 10.3125C16.2937 8.85002 17.7937 8.53127 17.7562 8.49377C15.3375 8.98127 13.2937 10.9313 12.2437 12.8438C11.1187 14.7563 10.9875 16.6313 10.9312 17.2875Z" fill="#647A8A"/>
<path d="M13.7063 17.925C14.1101 17.925 14.4375 17.5976 14.4375 17.1938C14.4375 16.7899 14.1101 16.4625 13.7063 16.4625C13.3024 16.4625 12.975 16.7899 12.975 17.1938C12.975 17.5976 13.3024 17.925 13.7063 17.925Z" fill="#F5C359"/>
<path d="M14.55 17.2875C14.625 16.8563 14.2875 16.4625 13.8938 16.4625H4.96875C4.9125 16.4625 4.875 16.4813 4.81875 16.4813C4.5 16.5563 4.25625 16.8375 4.25625 17.1938C4.25625 17.3063 4.2 18.7313 5.30625 19.0125H15.5063C14.775 18.7875 14.4375 18 14.55 17.2875Z" fill="#F5C359"/>
</g>
<defs>
<linearGradient id="paint0_linear_205_74" x1="20.8159" y1="21.0594" x2="9.95119" y2="10.1949" gradientUnits="userSpaceOnUse">
<stop offset="0.061" stop-color="white" stop-opacity="0"/>
<stop offset="0.162" stop-color="#CDCDCD" stop-opacity="0.108"/>
<stop offset="0.284" stop-color="#979797" stop-opacity="0.237"/>
<stop offset="0.407" stop-color="#696969" stop-opacity="0.369"/>
<stop offset="0.53" stop-color="#434343" stop-opacity="0.499"/>
<stop offset="0.651" stop-color="#262626" stop-opacity="0.628"/>
<stop offset="0.771" stop-color="#111111" stop-opacity="0.756"/>
<stop offset="0.888" stop-color="#040404" stop-opacity="0.881"/>
<stop offset="1"/>
</linearGradient>
<clipPath id="clip0_205_74">
<rect width="24" height="24" fill="white"/>
</clipPath>
</defs>
</svg>
