<svg width="17" height="17" viewBox="0 0 17 17" fill="none" xmlns="http://www.w3.org/2000/svg">
<g clip-path="url(#clip0_216_116)">
<path d="M5.33906 15.3266C5.23281 15.5391 4.96719 15.6187 4.75469 15.4859C-0.265624 12.3781 -0.2125 4.83436 4.8875 1.80624C5.02031 1.72655 5.20625 1.77968 5.28594 1.91249C5.36563 2.0453 5.3125 2.20468 5.17969 2.28436C0.425001 5.12655 0.478125 11.9266 5.17969 14.7953C5.36563 14.9016 5.41875 15.1406 5.33906 15.3266Z" fill="#4CB274"/>
<path d="M5.15313 3.55933C4.78125 3.85151 4.38281 4.01089 3.98438 4.09058C3.58594 4.17026 3.21406 4.11714 2.92188 3.90464C3.58594 3.02808 4.72813 2.94839 5.15313 3.55933ZM3.53281 1.43433C3.00156 1.85933 2.65625 2.39058 2.57656 2.84214C2.47031 3.32026 2.60313 3.69214 2.89531 3.9312C3.53281 3.0812 3.95781 2.04526 3.53281 1.43433ZM3.87813 4.83433C3.6125 5.17964 3.29375 5.47183 2.94844 5.6312C2.60313 5.79058 2.20469 5.87026 1.88594 5.73745C2.25781 4.70151 3.29375 4.38276 3.87813 4.83433ZM1.72656 3.24058C1.35469 3.74526 1.19531 4.32964 1.24844 4.7812C1.30156 5.23276 1.51406 5.57808 1.85938 5.71089C2.23125 4.7812 2.31094 3.7187 1.72656 3.24058ZM3.05469 6.34839C2.89531 6.74683 2.65625 7.09214 2.36406 7.3312C2.07188 7.57026 1.72656 7.7562 1.35469 7.70308C1.4875 6.64058 2.36406 6.0562 3.05469 6.34839Z" fill="#79DCA0"/>
<path d="M0.557813 5.39209C0.345313 5.97646 0.345313 6.56084 0.504688 6.98584C0.664063 7.41084 0.982813 7.67647 1.35469 7.70303C1.46094 6.69365 1.24844 5.68428 0.557813 5.39209ZM2.65625 7.99522C2.60313 8.42022 2.47031 8.81865 2.25781 9.1374C2.04531 9.45615 1.75313 9.69522 1.38125 9.74834C1.22188 8.68584 1.93906 7.88897 2.65625 7.99522ZM2.7538e-07 7.72959C-0.0531247 8.34053 0.10625 8.89834 0.371875 9.27022C0.6375 9.64209 1.00938 9.80147 1.38125 9.74834C1.22188 8.73897 0.74375 7.83584 2.7538e-07 7.72959ZM2.70938 9.69522C2.78906 10.1202 2.73594 10.5452 2.62969 10.8905C2.49688 11.2624 2.28438 11.5812 1.93906 11.7405C1.51406 10.7312 1.99219 9.7749 2.70938 9.69522Z" fill="#79DCA0"/>
<path d="M0.10625 10.1202C0.2125 10.7312 0.504687 11.2359 0.876562 11.5015C1.24844 11.7937 1.64687 11.8468 1.96562 11.714C1.54062 10.7843 0.823437 10.0406 0.10625 10.1202ZM3.21406 11.3156C3.4 11.714 3.47969 12.1124 3.45312 12.5109C3.42656 12.9093 3.32031 13.2812 3.02812 13.5202C2.3375 12.6437 2.55 11.5812 3.21406 11.3156ZM0.796875 12.4312C1.0625 12.989 1.4875 13.414 1.9125 13.5999C2.3375 13.7859 2.7625 13.7593 3.02812 13.5202C2.36406 12.6968 1.4875 12.1656 0.796875 12.4312ZM4.17031 12.7499C4.4625 13.0952 4.675 13.4671 4.78125 13.8656C4.8875 14.264 4.8875 14.6624 4.70156 14.9546C3.69219 14.3171 3.58594 13.2015 4.17031 12.7499ZM2.15156 14.5031C2.57656 14.9812 3.13438 15.2734 3.6125 15.3531C4.09062 15.4327 4.48906 15.2734 4.70156 14.9812C3.74531 14.3437 2.73594 14.0515 2.15156 14.5031Z" fill="#79DCA0"/>
<path d="M11.6609 15.3266C11.7672 15.5391 12.0328 15.6187 12.2453 15.4859C17.2656 12.3781 17.2125 4.83436 12.1125 1.80624C11.9797 1.72655 11.7937 1.77968 11.7141 1.91249C11.6344 2.0453 11.6875 2.20468 11.8203 2.28436C16.575 5.12655 16.4953 11.9 11.7938 14.7953C11.6344 14.9016 11.5813 15.1406 11.6609 15.3266Z" fill="#4CB274"/>
<path d="M11.8469 3.55933C12.2187 3.85151 12.6172 4.01089 13.0156 4.09058C13.4141 4.17026 13.7859 4.11714 14.0781 3.90464C13.4141 3.02808 12.2719 2.94839 11.8469 3.55933ZM13.4672 1.43433C13.9984 1.85933 14.3437 2.39058 14.4234 2.84214C14.5297 3.32026 14.3969 3.69214 14.1047 3.9312C13.4672 3.0812 13.0422 2.04526 13.4672 1.43433ZM13.1219 4.83433C13.3875 5.17964 13.7063 5.47183 14.0516 5.6312C14.3969 5.79058 14.7953 5.87026 15.1141 5.73745C14.7422 4.70151 13.7063 4.38276 13.1219 4.83433ZM15.2734 3.24058C15.6453 3.74526 15.8047 4.32964 15.7516 4.7812C15.6984 5.23276 15.4859 5.57808 15.1406 5.71089C14.7687 4.7812 14.6891 3.7187 15.2734 3.24058ZM13.9453 6.34839C14.1047 6.74683 14.3437 7.09214 14.6359 7.3312C14.9281 7.57026 15.2734 7.7562 15.6453 7.70308C15.5125 6.64058 14.6359 6.0562 13.9453 6.34839Z" fill="#79DCA0"/>
<path d="M16.4422 5.39209C16.6547 5.97646 16.6547 6.56084 16.4953 6.98584C16.3359 7.41084 16.0172 7.67647 15.6453 7.70303C15.5391 6.69365 15.7516 5.68428 16.4422 5.39209ZM14.3437 7.99522C14.3969 8.42022 14.5297 8.81865 14.7422 9.1374C14.9547 9.45615 15.2469 9.69522 15.6187 9.74834C15.7781 8.68584 15.0609 7.88897 14.3437 7.99522ZM17 7.72959C17.0531 8.34053 16.8937 8.89834 16.6281 9.27022C16.3625 9.64209 15.9906 9.80147 15.6187 9.74834C15.7781 8.73897 16.2562 7.83584 17 7.72959ZM14.2906 9.69522C14.2109 10.1202 14.2641 10.5452 14.3703 10.8905C14.5031 11.2624 14.7156 11.5812 15.0609 11.7405C15.4859 10.7312 15.0078 9.7749 14.2906 9.69522Z" fill="#79DCA0"/>
<path d="M16.8938 10.1202C16.7875 10.7312 16.4953 11.2359 16.1234 11.5015C15.7516 11.7937 15.3531 11.8468 15.0344 11.714C15.4594 10.7843 16.1766 10.0406 16.8938 10.1202ZM13.7859 11.3156C13.6 11.714 13.5203 12.1124 13.5469 12.5109C13.5734 12.9093 13.6797 13.2812 13.9719 13.5202C14.6625 12.6437 14.45 11.5812 13.7859 11.3156Z" fill="#79DCA0"/>
<path d="M16.2031 12.4313C15.9375 12.9891 15.5125 13.4141 15.0875 13.6C14.6625 13.7859 14.2375 13.7594 13.9719 13.5203C14.6359 12.6969 15.5125 12.1656 16.2031 12.4313ZM12.8297 12.75C12.5375 13.0953 12.325 13.4672 12.2188 13.8656C12.1125 14.2641 12.1125 14.6625 12.2984 14.9547C13.3078 14.3172 13.4141 13.2016 12.8297 12.75ZM14.8484 14.5031C14.4234 14.9813 13.8656 15.2734 13.3875 15.3531C12.9094 15.4328 12.5109 15.2734 12.2984 14.9813C13.2547 14.3438 14.2641 14.0516 14.8484 14.5031Z" fill="#79DCA0"/>
<path d="M10.9438 9.77493L11.5016 13.1218L8.5 11.5546L5.49844 13.1218L6.05625 9.77493L3.63906 7.41086L6.98594 6.90618L8.5 3.87805L10.0141 6.90618L13.3609 7.41086L10.9438 9.77493Z" fill="#F7CA3C"/>
<path d="M8.5 3.87805V8.57961L10.0141 6.90618L8.5 3.87805Z" fill="#F2BD27"/>
<path d="M13.3609 7.41089L10.9438 9.77495L8.5 8.57964L13.3609 7.41089ZM3.63906 7.41089L6.05625 9.77495L8.5 8.57964L3.63906 7.41089Z" fill="#F2BD27"/>
<path d="M8.5 8.57959V11.5546L11.5016 13.1218L8.5 8.57959ZM8.5 8.57959V11.5546L5.49844 13.1218L8.5 8.57959Z" fill="#F2BD27"/>
</g>
<defs>
<clipPath id="clip0_216_116">
<rect width="17" height="17" fill="white"/>
</clipPath>
</defs>
</svg>
