<svg width="17" height="17" viewBox="0 0 17 17" fill="none" xmlns="http://www.w3.org/2000/svg">
<path d="M16.4688 3.45312V2.9481C16.4688 2.07413 15.7761 1.34293 14.9022 1.32835C14.0096 1.31344 13.2812 2.03259 13.2812 2.92187V3.98437H15.9375C16.2309 3.98437 16.4688 3.74654 16.4688 3.45312Z" fill="#F5871E"/>
<path d="M3.71875 14.0781V7.4375C3.71875 6.8507 4.19445 6.375 4.78125 6.375C4.19445 6.375 3.71875 5.8993 3.71875 5.3125V2.92188C3.71875 2.04166 4.43229 1.32812 5.3125 1.32812H14.875C13.9948 1.32812 13.2812 2.04166 13.2812 2.92188V4.25C13.2812 4.8368 12.8055 5.3125 12.2188 5.3125C12.8055 5.3125 13.2812 5.7882 13.2812 6.375V6.90625C13.2812 7.19967 13.0434 7.4375 12.75 7.4375C13.0434 7.4375 13.2812 7.67533 13.2812 7.96875V11.6875C13.2812 12.2743 12.8055 12.75 12.2188 12.75C12.8055 12.75 13.2812 13.2257 13.2812 13.8125V14.0781C13.2812 14.9583 12.5677 15.6719 11.6875 15.6719H2.125C3.00521 15.6719 3.71875 14.9583 3.71875 14.0781Z" fill="#FABE19"/>
<path d="M10.0938 14.0781V13.8125C10.0938 13.5191 9.85592 13.2812 9.5625 13.2812H1.0625C0.769084 13.2812 0.53125 13.5191 0.53125 13.8125V14.0781C0.53125 14.9583 1.24479 15.6719 2.125 15.6719H11.6875C10.8073 15.6719 10.0938 14.9583 10.0938 14.0781ZM5.84375 7.70312H11.1562C11.4497 7.70312 11.6875 7.46529 11.6875 7.17188C11.6875 6.87846 11.4497 6.64062 11.1562 6.64062H5.84375C5.55033 6.64062 5.3125 6.87846 5.3125 7.17188C5.3125 7.46529 5.55033 7.70312 5.84375 7.70312ZM9.29688 9.82812H11.1562C11.4497 9.82812 11.6875 9.59029 11.6875 9.29688C11.6875 9.00346 11.4497 8.76562 11.1562 8.76562H9.29688C9.00346 8.76562 8.76562 9.00346 8.76562 9.29688C8.76562 9.59029 9.00346 9.82812 9.29688 9.82812ZM5.84375 9.82812H7.70312C7.99654 9.82812 8.23438 9.59029 8.23438 9.29688C8.23438 9.00346 7.99654 8.76562 7.70312 8.76562H5.84375C5.55033 8.76562 5.3125 9.00346 5.3125 9.29688C5.3125 9.59029 5.55033 9.82812 5.84375 9.82812ZM7.96875 11.9531H11.1562C11.4497 11.9531 11.6875 11.7153 11.6875 11.4219C11.6875 11.1285 11.4497 10.8906 11.1562 10.8906H7.96875C7.67533 10.8906 7.4375 11.1285 7.4375 11.4219C7.4375 11.7153 7.67533 11.9531 7.96875 11.9531ZM5.84375 11.9531H6.375C6.66842 11.9531 6.90625 11.7153 6.90625 11.4219C6.90625 11.1285 6.66842 10.8906 6.375 10.8906H5.84375C5.55033 10.8906 5.3125 11.1285 5.3125 11.4219C5.3125 11.7153 5.55033 11.9531 5.84375 11.9531ZM7.96875 5.57812H11.1562C11.4497 5.57812 11.6875 5.34029 11.6875 5.04688C11.6875 4.75346 11.4497 4.51562 11.1562 4.51562H7.96875C7.67533 4.51562 7.4375 4.75346 7.4375 5.04688C7.4375 5.34029 7.67533 5.57812 7.96875 5.57812ZM5.84375 5.57812H6.375C6.66842 5.57812 6.90625 5.34029 6.90625 5.04688C6.90625 4.75346 6.66842 4.51562 6.375 4.51562H5.84375C5.55033 4.51562 5.3125 4.75346 5.3125 5.04688C5.3125 5.34029 5.55033 5.57812 5.84375 5.57812Z" fill="#F5871E"/>
<path d="M6.64062 4.25H5.57812V8.23438H1.59375C1.59375 10.4349 3.37762 12.2188 5.57812 12.2188H6.64062C8.84113 12.2188 10.625 10.4349 10.625 8.23438C10.625 6.03387 8.84113 4.25 6.64062 4.25Z" fill="#D7322D"/>
<path d="M3.1875 3.1875H2.125C2.05524 3.1875 1.98616 3.20124 1.92171 3.22795C1.85726 3.25465 1.7987 3.29379 1.74937 3.34312L0.686873 4.40562C0.479387 4.61308 0.479387 4.94946 0.686873 5.15691L1.74937 6.21941C1.84898 6.31905 1.98412 6.37503 2.125 6.37503H3.1875C3.48092 6.37503 3.71875 6.13717 3.71875 5.84378V3.71878C3.71875 3.42537 3.48092 3.1875 3.1875 3.1875Z" fill="#D7322D"/>
<path d="M5.57812 11.1562C7.19183 11.1562 8.5 9.84808 8.5 8.23438C8.5 6.62067 7.19183 5.3125 5.57812 5.3125C3.96442 5.3125 2.65625 6.62067 2.65625 8.23438C2.65625 9.84808 3.96442 11.1562 5.57812 11.1562Z" fill="#F0E1CD"/>
<path d="M5.57812 10.625C5.50768 10.625 5.44011 10.597 5.3903 10.5472C5.34049 10.4974 5.3125 10.4298 5.3125 10.3594V10.0938C5.3125 10.0233 5.34049 9.95574 5.3903 9.90592C5.44011 9.85611 5.50768 9.82812 5.57812 9.82812C5.64857 9.82812 5.71614 9.85611 5.76595 9.90592C5.81576 9.95574 5.84375 10.0233 5.84375 10.0938V10.3594C5.84375 10.4298 5.81576 10.4974 5.76595 10.5472C5.71614 10.597 5.64857 10.625 5.57812 10.625ZM7.70312 8.5H7.4375C7.36705 8.5 7.29949 8.47201 7.24967 8.4222C7.19986 8.37239 7.17188 8.30482 7.17188 8.23438C7.17188 8.16393 7.19986 8.09636 7.24967 8.04655C7.29949 7.99674 7.36705 7.96875 7.4375 7.96875H7.70312C7.77357 7.96875 7.84114 7.99674 7.89095 8.04655C7.94076 8.09636 7.96875 8.16393 7.96875 8.23438C7.96875 8.30482 7.94076 8.37239 7.89095 8.4222C7.84114 8.47201 7.77357 8.5 7.70312 8.5Z" fill="#B9AF9B"/>
<path d="M5.84375 7.48302V6.10938C5.84375 6.03893 5.81576 5.97136 5.76595 5.92155C5.71614 5.87174 5.64857 5.84375 5.57812 5.84375C5.50768 5.84375 5.44011 5.87174 5.3903 5.92155C5.34049 5.97136 5.3125 6.03893 5.3125 6.10938V7.48302C5.2005 7.52276 5.09879 7.58698 5.01476 7.67101C4.93073 7.75504 4.86651 7.85675 4.82677 7.96875H3.98438C3.91393 7.96875 3.84636 7.99674 3.79655 8.04655C3.74674 8.09636 3.71875 8.16393 3.71875 8.23438C3.71875 8.30482 3.74674 8.37239 3.79655 8.4222C3.84636 8.47201 3.91393 8.5 3.98438 8.5H4.82677C4.93618 8.80945 5.23119 9.03125 5.57812 9.03125C6.01823 9.03125 6.375 8.67448 6.375 8.23438C6.375 7.88744 6.1532 7.59246 5.84375 7.48302Z" fill="#353744"/>
<path d="M5.57812 8.5C5.72483 8.5 5.84375 8.38108 5.84375 8.23438C5.84375 8.08767 5.72483 7.96875 5.57812 7.96875C5.43142 7.96875 5.3125 8.08767 5.3125 8.23438C5.3125 8.38108 5.43142 8.5 5.57812 8.5Z" fill="#F5871E"/>
<path d="M5.57813 4.24999H2.65625V3.71874C2.65625 3.61367 2.62509 3.51095 2.56671 3.42359C2.50833 3.33623 2.42536 3.26814 2.32829 3.22793C2.23121 3.18773 2.1244 3.17721 2.02134 3.19771C1.91829 3.21821 1.82363 3.26881 1.74934 3.34311L0.68684 4.40561C0.479354 4.61306 0.479354 4.94944 0.68684 5.1569L1.74934 6.2194C1.82361 6.29373 1.91826 6.34435 2.02132 6.36486C2.12438 6.38536 2.2312 6.37482 2.32827 6.33458C2.42535 6.29437 2.50833 6.22627 2.56671 6.1389C2.62509 6.05153 2.65625 5.94882 2.65625 5.84374V5.31249H5.57813C7.19183 5.31249 8.5 6.62066 8.5 8.23436C8.5 9.84807 7.19183 11.1562 5.57813 11.1562C3.96442 11.1562 2.65625 9.84807 2.65625 8.23436C2.65625 8.16391 2.62826 8.09635 2.57845 8.04654C2.52864 7.99672 2.46107 7.96874 2.39063 7.96874H1.85938C1.78893 7.96874 1.72136 7.99672 1.67155 8.04654C1.62174 8.09635 1.59375 8.16391 1.59375 8.23436C1.59375 10.4349 3.37762 12.2187 5.57813 12.2187C7.77863 12.2187 9.5625 10.4349 9.5625 8.23436C9.5625 6.03386 7.77863 4.24999 5.57813 4.24999Z" fill="#F04B37"/>
</svg>
