<svg width="24" height="24" viewBox="0 0 24 24" fill="none" xmlns="http://www.w3.org/2000/svg">
<g clip-path="url(#clip0_205_87)">
<path d="M12 0C5.37258 0 0 5.37258 0 12C0 12.89 0.0977812 13.7571 0.281578 14.5919L5.0895 10.0274C5.14437 9.95339 5.21334 9.89102 5.29245 9.84385C5.37155 9.79668 5.45921 9.76564 5.55037 9.75253L7.20797 9.51145L11.0322 5.71777V5.71786C11.0967 5.6252 11.1827 5.5495 11.2828 5.4972C11.3829 5.4449 11.4942 5.41753 11.6071 5.41744C11.6479 5.41744 11.6878 5.42194 11.7272 5.42864C11.9449 5.46675 12.1355 5.60489 12.2355 5.80748L13.9132 9.20691L17.6645 9.75253C17.9281 9.79017 18.1474 9.97538 18.2299 10.2292C18.2384 10.2547 18.2442 10.2816 18.2497 10.3076C18.296 10.539 18.224 10.7801 18.0526 10.947L15.3381 13.5931L15.979 17.3287C16.0217 17.5793 15.9248 17.8311 15.7289 17.9899L15.7297 17.9936L9.7148 23.7817C10.4679 23.927 11.2331 24.0001 12 24C18.6274 24 24 18.6274 24 12C24 5.37258 18.6274 0 12 0Z" fill="#E2001A"/>
<path d="M15.7289 17.99C15.9247 17.8311 16.0217 17.5792 15.979 17.3287L15.3381 13.5931L18.0526 10.947C18.224 10.7802 18.296 10.539 18.2497 10.3076C18.2442 10.2817 18.2384 10.2547 18.2299 10.2292C18.1474 9.97542 17.9281 9.79022 17.6645 9.75257L13.9132 9.20695L12.2355 5.80753C12.1355 5.60493 11.9449 5.46675 11.7272 5.42868C11.6876 5.42155 11.6474 5.4178 11.6071 5.41748C11.4942 5.41758 11.3829 5.44494 11.2828 5.49724C11.1827 5.54955 11.0967 5.62525 11.0322 5.7179V5.71781L7.20797 9.5115L5.55037 9.75257C5.36325 9.77929 5.19881 9.8805 5.0895 10.0274L0.281578 14.592C1.30509 19.2402 5.02308 22.8771 9.7148 23.7817L15.7297 17.9937L15.7289 17.99Z" fill="#9F0F21"/>
<path d="M4.98412 10.2327C4.9445 10.3565 4.94016 10.4889 4.9716 10.6151C5.00304 10.7412 5.06901 10.8561 5.16211 10.9469L7.87636 13.593L11.7309 12.4959L4.98412 10.2327Z" fill="#F29400"/>
<path d="M11.7309 12.496L11.6071 16.3034L14.9627 18.0672C15.1987 18.191 15.485 18.1707 15.7003 18.0138C15.7091 18.0075 15.7163 18.0004 15.7245 17.9936L11.7309 12.496ZM7.42355 17.9336L11.7309 12.496L7.87641 13.5931L7.23577 17.3286C7.21732 17.4371 7.22471 17.5485 7.25733 17.6536C7.28996 17.7587 7.3469 17.8546 7.42355 17.9336Z" fill="#FFED00"/>
<path d="M7.42355 17.9335C7.45153 17.9628 7.482 17.9897 7.51463 18.0137C7.62025 18.0907 7.74535 18.1365 7.87571 18.146C8.00607 18.1554 8.13646 18.1281 8.25206 18.0671L11.607 16.3033L11.7309 12.4958L7.42355 17.9335ZM15.3381 13.593L11.7309 12.4959L15.7245 17.9935C15.8226 17.9156 15.8979 17.8128 15.9426 17.6958C15.9874 17.5789 15.9999 17.452 15.979 17.3286L15.3381 13.593Z" fill="#F29400"/>
<path d="M12.2355 5.80755C12.1355 5.60496 11.9449 5.46677 11.7272 5.42871L11.7309 12.496L13.9132 9.20698L12.2355 5.80755ZM18.0526 10.9469C18.224 10.7801 18.296 10.5389 18.2497 10.3076L11.7309 12.496L15.3381 13.5931L18.0526 10.9469Z" fill="#FFED00"/>
<path d="M18.2299 10.2292C18.1474 9.97538 17.9281 9.79017 17.6645 9.75253L13.9132 9.20691L11.7309 12.4959L18.2497 10.3075C18.2442 10.2816 18.2384 10.2547 18.2299 10.2292Z" fill="#F29400"/>
<path d="M5.55038 9.75253C5.42098 9.77113 5.2994 9.82565 5.19946 9.90991C5.09952 9.99417 5.02522 10.1048 4.98502 10.2292C4.98455 10.23 4.98455 10.2314 4.98408 10.2327L11.7309 12.4959L9.30178 9.20691L5.55038 9.75253Z" fill="#FFED00"/>
<path d="M11.6071 5.41748C11.4765 5.41758 11.3485 5.45414 11.2375 5.52305C11.1265 5.59196 11.037 5.69049 10.979 5.80753L9.30178 9.20695L11.7309 12.496L11.7273 5.42868C11.6876 5.42157 11.6474 5.41782 11.6071 5.41748Z" fill="#F29400"/>
</g>
<defs>
<clipPath id="clip0_205_87">
<rect width="24" height="24" fill="white"/>
</clipPath>
</defs>
</svg>
