<svg width="17" height="17" viewBox="0 0 17 17" fill="none" xmlns="http://www.w3.org/2000/svg">
<g clip-path="url(#clip0_216_68)">
<path d="M14.7761 8.8444C15.2002 8.8444 15.6087 8.72184 15.9687 8.48009C16.563 8.07787 16.9765 7.34781 16.9931 6.58763C17.0116 6.2034 16.9931 5.79434 16.9367 5.33667C16.9201 5.20486 16.853 5.08523 16.748 5.00398C16.6439 4.92276 16.5116 4.88823 16.3793 4.90331C15.8722 4.96855 15.3527 5.20974 14.9198 5.58725C14.8994 5.4228 14.8614 5.25529 14.8269 5.08971C15.3132 4.85291 15.6902 4.46964 15.885 3.98843C16.1622 3.32112 16.0747 2.49819 15.6554 1.8411C15.421 1.47195 15.17 1.13441 14.9103 0.838207C14.7284 0.630522 14.4142 0.611563 14.208 0.791523C13.7586 1.18501 13.4551 1.756 13.3306 2.44762C13.2265 3.06579 13.2868 3.63874 13.5125 4.15478C14.6243 6.60828 13.67 9.59694 11.4376 10.9922C11.1575 11.1722 10.9902 11.4781 10.9902 11.8492C10.9902 12.1245 11.2052 12.3395 11.4804 12.3395C11.7557 12.3395 11.9707 12.1084 11.9707 11.8332C12.0218 11.8013 12.0704 11.7673 12.1203 11.7339C12.5184 12.0835 13.0028 12.2754 13.5242 12.2758H13.5407C14.7625 12.2758 15.5628 11.2738 16.0737 10.1596C16.1866 9.91493 16.0835 9.62553 15.8432 9.50587C15.3885 9.28012 14.8739 9.21428 14.2817 9.28653C14.3588 9.13411 14.4298 8.97873 14.4947 8.82076C14.5888 8.83261 14.6832 8.8444 14.7761 8.8444Z" fill="#FF9100"/>
<path d="M5.3969 10.8798C3.03817 9.20388 2.52322 6.33153 3.51855 4.10856L3.51337 4.10607C3.72215 3.6076 3.77922 3.05035 3.67709 2.44274C3.55454 1.75743 3.25199 1.18644 2.80067 0.791523C2.59444 0.611563 2.28024 0.630522 2.09836 0.838207C1.83865 1.13441 1.58766 1.47195 1.35325 1.8406C0.933999 2.49865 0.846443 3.32208 1.12272 3.98306C1.31723 4.46742 1.69408 4.85158 2.17974 5.08881C2.14587 5.25589 2.11443 5.42247 2.09391 5.59184C1.65892 5.21113 1.12917 4.96868 0.620663 4.90324C0.490308 4.88913 0.357065 4.9227 0.251977 5.00391C0.14689 5.08513 0.0788241 5.20526 0.0632519 5.33661C0.00780304 5.78893 -0.010691 6.19846 0.00584406 6.57929C0.02726 7.3672 0.455379 8.10019 1.04583 8.48391C1.39114 8.72271 1.7997 8.84479 2.22772 8.84479C2.32875 8.84479 2.43115 8.83274 2.53358 8.81906C2.59607 8.97379 2.66241 9.12619 2.73695 9.27577C2.28791 9.21624 1.72433 9.23035 1.17326 9.5043C1.0536 9.56364 0.963151 9.66919 0.921315 9.79662C0.87948 9.92406 0.89213 10.0627 0.953423 10.1813C1.12658 10.5106 1.3318 10.8919 1.58474 11.2334C2.00765 11.85 2.70169 12.2728 3.51951 12.2728C4.01616 12.2728 4.49342 12.0818 4.88714 11.7397C4.94677 11.7818 5.00279 11.8216 5.01268 11.8287L5.01364 11.8491C5.01364 12.1244 5.2364 12.3472 5.51169 12.3472C5.78697 12.3472 6.00973 12.1244 6.00973 11.8491C6.00973 11.3137 5.67023 11.0734 5.3969 10.8798ZM8.49995 12.3472C8.22467 12.3472 8.00191 12.1244 8.00191 11.8492V9.85699C8.00191 9.5817 8.22467 9.35894 8.49995 9.35894C8.77524 9.35894 8.99799 9.5817 8.99799 9.85699V11.8492C8.99799 12.1244 8.77524 12.3472 8.49995 12.3472Z" fill="#FABE2C"/>
<path d="M8.998 11.8492V9.85706C8.998 9.58177 8.77524 9.35901 8.49995 9.35901V12.3473C8.77524 12.3473 8.998 12.1245 8.998 11.8492Z" fill="#FF9100"/>
<path d="M8.5048 10.3551C8.45908 10.3551 8.41239 10.3488 8.3686 10.3361C6.10021 9.68875 4.5156 7.59198 4.5156 5.23697V2.38636C4.51562 2.29924 4.53856 2.21366 4.58209 2.1382C4.62563 2.06273 4.68825 2.00004 4.76366 1.95642C4.91735 1.86644 5.10801 1.86644 5.25974 1.9535C5.26751 1.95788 6.03307 2.38636 6.7568 2.38636C7.27914 2.38636 7.93673 1.77403 8.12545 1.55954C8.31611 1.34555 8.68379 1.34555 8.87448 1.55954C9.0632 1.77403 9.72076 2.38636 10.2431 2.38636C10.962 2.38636 11.7314 1.95834 11.7392 1.95399C11.8939 1.86644 12.0836 1.86694 12.2363 1.95545C12.3118 1.99929 12.3744 2.06216 12.4179 2.13779C12.4614 2.21341 12.4844 2.29914 12.4844 2.3864V5.23946C12.4844 7.59301 10.9046 9.68878 8.64203 10.3356C8.59743 10.3486 8.55123 10.3551 8.5048 10.3551Z" fill="#FED843"/>
<path d="M8.5048 10.3551C8.55052 10.3551 8.5972 10.3488 8.64196 10.3356C10.9046 9.68879 12.4843 7.59299 12.4843 5.23946V2.3864C12.4843 2.29915 12.4614 2.21342 12.4178 2.1378C12.3743 2.06217 12.3117 1.9993 12.2362 1.95546C12.0835 1.86694 11.8938 1.86645 11.7392 1.954C11.7314 1.95838 10.9619 2.38637 10.2431 2.38637C9.72072 2.38637 9.06314 1.77404 8.87441 1.55955C8.77909 1.45254 8.6395 1.39905 8.49992 1.39905V10.3544C8.50158 10.3544 8.50317 10.3551 8.5048 10.3551Z" fill="#FABE2C"/>
<path d="M8.50385 8.21843C8.4231 8.21843 8.34334 8.19897 8.2694 8.16005C7.18286 7.58176 6.50777 6.46165 6.50777 5.23695V4.86684C6.50777 4.60662 6.70816 4.39067 6.96691 4.37025C7.39297 4.33718 7.82876 4.20148 8.26359 3.96753C8.33619 3.92827 8.41743 3.90771 8.49996 3.90771C8.5825 3.90771 8.66373 3.92827 8.73633 3.96753C9.17116 4.20148 9.60695 4.33718 10.033 4.37025C10.2918 4.39067 10.4921 4.60662 10.4921 4.86684V5.23941C10.4921 6.46118 9.81999 7.58033 8.73926 8.15959C8.66681 8.19824 8.58596 8.21845 8.50385 8.21843Z" fill="#FABE2C"/>
<path d="M8.50384 8.21844C8.58459 8.21844 8.6653 8.19899 8.73925 8.15961C9.81997 7.58035 10.4921 6.46117 10.4921 5.23943V4.86685C10.4921 4.60664 10.2918 4.39069 10.033 4.37027C9.60694 4.3372 9.17115 4.2015 8.73632 3.96755C8.66371 3.92831 8.58248 3.90775 8.49995 3.90771V8.21748C8.50128 8.21748 8.50251 8.21844 8.50384 8.21844Z" fill="#FF9100"/>
<path d="M11.4882 11.3512H5.51169C5.23275 11.3512 5.01364 11.5703 5.01364 11.8492V15.8336H11.9863V11.8492C11.9863 11.5703 11.7672 11.3512 11.4882 11.3512Z" fill="#646D73"/>
<path d="M11.4882 11.3512H8.49995V15.8336H11.9863V11.8492C11.9863 11.5703 11.7672 11.3512 11.4882 11.3512Z" fill="#474F54"/>
<path d="M9.49605 14.3395H7.50387C7.22858 14.3395 7.00582 14.1167 7.00582 13.8414C7.00582 13.5661 7.22858 13.3434 7.50387 13.3434H9.49605C9.77134 13.3434 9.9941 13.5661 9.9941 13.8414C9.9941 14.1167 9.77134 14.3395 9.49605 14.3395Z" fill="#FED843"/>
<path d="M9.49604 13.3434H8.49995V14.3395H9.49604C9.77133 14.3395 9.99409 14.1167 9.99409 13.8414C9.99409 13.5661 9.77133 13.3434 9.49604 13.3434Z" fill="#FABE2C"/>
<path d="M12.4843 16.3315H4.5156C4.24031 16.3315 4.01756 16.1088 4.01756 15.8335C4.01756 15.5582 4.24031 15.3354 4.5156 15.3354H12.4843C12.7596 15.3354 12.9823 15.5582 12.9823 15.8335C12.9823 16.1088 12.7596 16.3315 12.4843 16.3315Z" fill="#474F54"/>
<path d="M12.4843 15.3354H8.49995V16.3315H12.4843C12.7596 16.3315 12.9824 16.1088 12.9824 15.8335C12.9824 15.5582 12.7596 15.3354 12.4843 15.3354Z" fill="#32393F"/>
</g>
<defs>
<clipPath id="clip0_216_68">
<rect width="17" height="17" fill="white"/>
</clipPath>
</defs>
</svg>
